<svg width="300" height="195" viewBox="0 0 300 195" fill="none" xmlns="http://www.w3.org/2000/svg">
<g clip-path="url(#clip0)">
<path d="M0 0H255C279.853 0 300 20.1472 300 45V195H0V0Z" fill="white" fill-opacity="0.25"/>
<path d="M13.1367 34V26.3477H4.20703V34H1.96875V17.4883H4.20703V24.4727H13.1367V17.4883H15.375V34H13.1367ZM31.0195 34L29.1328 29.1719H21.6094L19.7109 34H17.3906L24.1289 17.4883H26.6719L33.3047 34H31.0195ZM25.3711 19.1758L25.2656 19.5039C25.0703 20.1523 24.7812 20.9844 24.3984 22L22.2891 27.4258H28.4648L26.3438 21.9766C26.125 21.4375 25.9062 20.8281 25.6875 20.1484L25.3711 19.1758ZM46.9922 34L42.7031 27.1445H37.5586V34H35.3203V17.4883H43.0898C44.9492 17.4883 46.3828 17.9062 47.3906 18.7422C48.4062 19.5703 48.9141 20.7266 48.9141 22.2109C48.9141 23.4375 48.5547 24.4688 47.8359 25.3047C47.125 26.1406 46.1406 26.668 44.8828 26.8867L49.5703 34H46.9922ZM46.6641 22.2344C46.6641 21.2734 46.3359 20.543 45.6797 20.043C45.0312 19.5352 44.0938 19.2812 42.8672 19.2812H37.5586V25.375H42.9609C44.1406 25.375 45.0508 25.1016 45.6914 24.5547C46.3398 24 46.6641 23.2266 46.6641 22.2344ZM64.3359 34L60.0469 27.1445H54.9023V34H52.6641V17.4883H60.4336C62.293 17.4883 63.7266 17.9062 64.7344 18.7422C65.75 19.5703 66.2578 20.7266 66.2578 22.2109C66.2578 23.4375 65.8984 24.4688 65.1797 25.3047C64.4688 26.1406 63.4844 26.668 62.2266 26.8867L66.9141 34H64.3359ZM64.0078 22.2344C64.0078 21.2734 63.6797 20.543 63.0234 20.043C62.375 19.5352 61.4375 19.2812 60.2109 19.2812H54.9023V25.375H60.3047C61.4844 25.375 62.3945 25.1016 63.0352 24.5547C63.6836 24 64.0078 23.2266 64.0078 22.2344ZM70.2539 34V17.4883H72.4922V34H70.2539ZM89.625 29.4414C89.625 30.9648 89.0273 32.1445 87.832 32.9805C86.6445 33.8164 84.9688 34.2344 82.8047 34.2344C78.7812 34.2344 76.4492 32.8359 75.8086 30.0391L77.9766 29.6055C78.2266 30.5977 78.7578 31.3281 79.5703 31.7969C80.3828 32.2578 81.4883 32.4883 82.8867 32.4883C84.332 32.4883 85.4453 32.2422 86.2266 31.75C87.0156 31.25 87.4102 30.5195 87.4102 29.5586C87.4102 29.0195 87.2852 28.582 87.0352 28.2461C86.793 27.9102 86.4492 27.6328 86.0039 27.4141C85.5586 27.1953 85.0273 27.0117 84.4102 26.8633C83.793 26.7148 83.1094 26.5547 82.3594 26.3828C81.0547 26.0938 80.0625 25.8047 79.3828 25.5156C78.7109 25.2266 78.1797 24.9062 77.7891 24.5547C77.3984 24.1953 77.0977 23.7773 76.8867 23.3008C76.6836 22.8242 76.582 22.2773 76.582 21.6602C76.582 20.2461 77.1211 19.1562 78.1992 18.3906C79.2852 17.625 80.8359 17.2422 82.8516 17.2422C84.7266 17.2422 86.1602 17.5312 87.1523 18.1094C88.1445 18.6797 88.8398 19.6562 89.2383 21.0391L87.0352 21.4258C86.793 20.5508 86.332 19.918 85.6523 19.5273C84.9727 19.1289 84.0312 18.9297 82.8281 18.9297C81.5078 18.9297 80.5 19.1484 79.8047 19.5859C79.1094 20.0234 78.7617 20.6758 78.7617 21.543C78.7617 22.0508 78.8945 22.4727 79.1602 22.8086C79.4336 23.1367 79.8242 23.418 80.332 23.6523C80.8398 23.8789 81.8516 24.1602 83.3672 24.4961C83.875 24.6133 84.3789 24.7344 84.8789 24.8594C85.3867 24.9766 85.8711 25.1211 86.332 25.293C86.793 25.457 87.2227 25.6523 87.6211 25.8789C88.0273 26.1055 88.3789 26.3828 88.6758 26.7109C88.9727 27.0391 89.2031 27.4258 89.3672 27.8711C89.5391 28.3164 89.625 28.8398 89.625 29.4414ZM111.047 34L106.758 27.1445H101.613V34H99.375V17.4883H107.145C109.004 17.4883 110.438 17.9062 111.445 18.7422C112.461 19.5703 112.969 20.7266 112.969 22.2109C112.969 23.4375 112.609 24.4688 111.891 25.3047C111.18 26.1406 110.195 26.668 108.938 26.8867L113.625 34H111.047ZM110.719 22.2344C110.719 21.2734 110.391 20.543 109.734 20.043C109.086 19.5352 108.148 19.2812 106.922 19.2812H101.613V25.375H107.016C108.195 25.375 109.105 25.1016 109.746 24.5547C110.395 24 110.719 23.2266 110.719 22.2344ZM118.957 19.3164V25.457H128.168V27.3086H118.957V34H116.719V17.4883H128.449V19.3164H118.957ZM148.242 19.1992C146.555 21.7773 145.363 23.7969 144.668 25.2578C143.973 26.7188 143.449 28.1602 143.098 29.582C142.754 31.0039 142.582 32.4766 142.582 34H140.379C140.379 31.8906 140.824 29.6719 141.715 27.3438C142.613 25.0078 144.109 22.3203 146.203 19.2812H137.332V17.4883H148.242V19.1992ZM161.766 29.3945C161.766 30.918 161.281 32.1055 160.312 32.957C159.344 33.8086 157.953 34.2344 156.141 34.2344C154.375 34.2344 152.992 33.8164 151.992 32.9805C151 32.1445 150.504 30.957 150.504 29.418C150.504 28.3398 150.812 27.4336 151.43 26.6992C152.047 25.9648 152.836 25.5195 153.797 25.3633V25.3164C152.898 25.1055 152.188 24.6484 151.664 23.9453C151.148 23.2422 150.891 22.418 150.891 21.4727C150.891 20.2148 151.359 19.1953 152.297 18.4141C153.242 17.6328 154.508 17.2422 156.094 17.2422C157.719 17.2422 159 17.625 159.938 18.3906C160.883 19.1562 161.355 20.1914 161.355 21.4961C161.355 22.4414 161.094 23.2656 160.57 23.9688C160.047 24.6719 159.332 25.1133 158.426 25.293V25.3398C159.48 25.5117 160.301 25.9609 160.887 26.6875C161.473 27.4062 161.766 28.3086 161.766 29.3945ZM159.164 21.6133C159.164 19.7461 158.141 18.8125 156.094 18.8125C155.102 18.8125 154.344 19.0469 153.82 19.5156C153.305 19.9844 153.047 20.6836 153.047 21.6133C153.047 22.5586 153.312 23.2812 153.844 23.7812C154.383 24.2734 155.141 24.5195 156.117 24.5195C157.109 24.5195 157.863 24.293 158.379 23.8398C158.902 23.3789 159.164 22.6367 159.164 21.6133ZM159.574 29.1953C159.574 28.1719 159.27 27.4023 158.66 26.8867C158.051 26.3633 157.195 26.1016 156.094 26.1016C155.023 26.1016 154.188 26.3828 153.586 26.9453C152.984 27.5 152.684 28.2656 152.684 29.2422C152.684 31.5156 153.844 32.6523 156.164 32.6523C157.312 32.6523 158.168 32.3789 158.73 31.832C159.293 31.2773 159.574 30.3984 159.574 29.1953ZM175.23 25.7383C175.23 28.4961 174.742 30.6016 173.766 32.0547C172.797 33.5078 171.363 34.2344 169.465 34.2344C167.566 34.2344 166.141 33.5117 165.188 32.0664C164.234 30.6211 163.758 28.5117 163.758 25.7383C163.758 22.9023 164.219 20.7773 165.141 19.3633C166.07 17.9492 167.535 17.2422 169.535 17.2422C171.48 17.2422 172.914 17.957 173.836 19.3867C174.766 20.8164 175.23 22.9336 175.23 25.7383ZM173.086 25.7383C173.086 23.3555 172.809 21.6289 172.254 20.5586C171.707 19.4883 170.801 18.9531 169.535 18.9531C168.238 18.9531 167.305 19.4805 166.734 20.5352C166.172 21.5898 165.891 23.3242 165.891 25.7383C165.891 28.082 166.176 29.7969 166.746 30.8828C167.324 31.9688 168.238 32.5117 169.488 32.5117C170.73 32.5117 171.641 31.957 172.219 30.8477C172.797 29.7383 173.086 28.0352 173.086 25.7383ZM188.59 25.7383C188.59 28.4961 188.102 30.6016 187.125 32.0547C186.156 33.5078 184.723 34.2344 182.824 34.2344C180.926 34.2344 179.5 33.5117 178.547 32.0664C177.594 30.6211 177.117 28.5117 177.117 25.7383C177.117 22.9023 177.578 20.7773 178.5 19.3633C179.43 17.9492 180.895 17.2422 182.895 17.2422C184.84 17.2422 186.273 17.957 187.195 19.3867C188.125 20.8164 188.59 22.9336 188.59 25.7383ZM186.445 25.7383C186.445 23.3555 186.168 21.6289 185.613 20.5586C185.066 19.4883 184.16 18.9531 182.895 18.9531C181.598 18.9531 180.664 19.4805 180.094 20.5352C179.531 21.5898 179.25 23.3242 179.25 25.7383C179.25 28.082 179.535 29.7969 180.105 30.8828C180.684 31.9688 181.598 32.5117 182.848 32.5117C184.09 32.5117 185 31.957 185.578 30.8477C186.156 29.7383 186.445 28.0352 186.445 25.7383ZM212.227 34V22.9844C212.227 21.7656 212.262 20.5938 212.332 19.4688C211.949 20.8672 211.605 21.9609 211.301 22.75L207.035 34H205.465L201.141 22.75L200.484 20.7578L200.098 19.4688L200.133 20.7695L200.18 22.9844V34H198.188V17.4883H201.129L205.523 28.9375C205.68 29.3984 205.828 29.8945 205.969 30.4258C206.117 30.9492 206.215 31.3281 206.262 31.5625C206.324 31.25 206.453 30.7773 206.648 30.1445C206.852 29.5039 206.988 29.1016 207.059 28.9375L211.371 17.4883H214.242V34H212.227ZM230.953 22.457C230.953 24.0195 230.441 25.2617 229.418 26.1836C228.402 27.1055 227.02 27.5664 225.27 27.5664H220.418V34H218.18V17.4883H225.129C226.98 17.4883 228.414 17.9219 229.43 18.7891C230.445 19.6562 230.953 20.8789 230.953 22.457ZM228.703 22.4805C228.703 20.3477 227.422 19.2812 224.859 19.2812H220.418V25.7969H224.953C227.453 25.7969 228.703 24.6914 228.703 22.4805ZM234.41 23.7461V21.3203H236.695V23.7461H234.41ZM234.41 34V31.5742H236.695V34H234.41ZM1.96875 62V45.4883H4.20703V60.1719H12.5508V62H1.96875ZM25.6992 55.6484C25.6992 57.8672 25.2109 59.5195 24.2344 60.6055C23.2578 61.6914 21.8398 62.2344 19.9805 62.2344C18.1289 62.2344 16.7305 61.6719 15.7852 60.5469C14.8398 59.4141 14.3672 57.7812 14.3672 55.6484C14.3672 51.2734 16.2617 49.0859 20.0508 49.0859C21.9883 49.0859 23.4141 49.6211 24.3281 50.6914C25.2422 51.7539 25.6992 53.4062 25.6992 55.6484ZM23.4844 55.6484C23.4844 53.8984 23.2227 52.6289 22.6992 51.8398C22.1836 51.043 21.3125 50.6445 20.0859 50.6445C18.8516 50.6445 17.957 51.0508 17.4023 51.8633C16.8555 52.668 16.582 53.9297 16.582 55.6484C16.582 57.3203 16.8516 58.5781 17.3906 59.4219C17.9375 60.2578 18.793 60.6758 19.957 60.6758C21.2227 60.6758 22.125 60.2695 22.6641 59.457C23.2109 58.6445 23.4844 57.375 23.4844 55.6484ZM28.3828 62V52.2734C28.3828 51.3828 28.3594 50.3984 28.3125 49.3203H30.3047C30.3672 50.7578 30.3984 51.6211 30.3984 51.9102H30.4453C30.7812 50.8242 31.168 50.082 31.6055 49.6836C32.043 49.2852 32.6602 49.0859 33.457 49.0859C33.7383 49.0859 34.0234 49.125 34.3125 49.2031V51.1367C34.0312 51.0586 33.6562 51.0195 33.1875 51.0195C32.3125 51.0195 31.6445 51.3984 31.1836 52.1562C30.7227 52.9062 30.4922 53.9844 30.4922 55.3906V62H28.3828ZM37.9453 56.1055C37.9453 57.5586 38.2461 58.6797 38.8477 59.4688C39.4492 60.2578 40.3281 60.6523 41.4844 60.6523C42.3984 60.6523 43.1289 60.4688 43.6758 60.1016C44.2305 59.7344 44.6055 59.2695 44.8008 58.707L46.6523 59.2344C45.8945 61.2344 44.1719 62.2344 41.4844 62.2344C39.6094 62.2344 38.1797 61.6758 37.1953 60.5586C36.2188 59.4414 35.7305 57.7812 35.7305 55.5781C35.7305 53.4844 36.2188 51.8789 37.1953 50.7617C38.1797 49.6445 39.582 49.0859 41.4023 49.0859C45.1289 49.0859 46.9922 51.332 46.9922 55.8242V56.1055H37.9453ZM44.8125 54.4883C44.6953 53.1523 44.3555 52.1797 43.793 51.5703C43.2305 50.9531 42.4219 50.6445 41.3672 50.6445C40.3438 50.6445 39.5312 50.9883 38.9297 51.6758C38.3359 52.3555 38.0156 53.293 37.9688 54.4883H44.8125ZM57.0703 62V53.9609C57.0703 52.7344 56.9023 51.8867 56.5664 51.418C56.2305 50.9492 55.625 50.7148 54.75 50.7148C53.8516 50.7148 53.1406 51.0586 52.6172 51.7461C52.0938 52.4336 51.832 53.4023 51.832 54.6523V62H49.7344V52.0273C49.7344 50.5508 49.7109 49.6484 49.6641 49.3203H51.6562C51.6641 49.3594 51.6719 49.4648 51.6797 49.6367C51.6875 49.8086 51.6953 50.0078 51.7031 50.2344C51.7188 50.4531 51.7344 50.8711 51.75 51.4883H51.7852C52.2383 50.5898 52.7578 49.9648 53.3438 49.6133C53.9297 49.2617 54.6445 49.0859 55.4883 49.0859C56.4492 49.0859 57.207 49.2773 57.7617 49.6602C58.3242 50.043 58.7148 50.6523 58.9336 51.4883H58.9688C59.4062 50.6367 59.9336 50.0234 60.5508 49.6484C61.1758 49.2734 61.9297 49.0859 62.8125 49.0859C64.0938 49.0859 65.0234 49.4336 65.6016 50.1289C66.1875 50.8242 66.4805 51.9648 66.4805 53.5508V62H64.3945V53.9609C64.3945 52.7344 64.2266 51.8867 63.8906 51.418C63.5547 50.9492 62.9492 50.7148 62.0742 50.7148C61.1523 50.7148 60.4336 51.0586 59.918 51.7461C59.4102 52.4258 59.1562 53.3945 59.1562 54.6523V62H57.0703ZM76.3477 46.625V44.6094H78.457V46.625H76.3477ZM76.3477 62V49.3203H78.457V62H76.3477ZM92.4258 55.6016C92.4258 60.0234 90.8711 62.2344 87.7617 62.2344C85.8086 62.2344 84.4961 61.5 83.8242 60.0312H83.7656C83.7969 60.0938 83.8125 60.7578 83.8125 62.0234V66.9805H81.7031V51.9102C81.7031 50.6055 81.6797 49.7422 81.6328 49.3203H83.6719C83.6797 49.3516 83.6914 49.4648 83.707 49.6602C83.7227 49.8477 83.7383 50.1406 83.7539 50.5391C83.7773 50.9375 83.7891 51.2109 83.7891 51.3594H83.8359C84.2109 50.5781 84.707 50.0078 85.3242 49.6484C85.9414 49.2812 86.7539 49.0977 87.7617 49.0977C89.3242 49.0977 90.4922 49.6211 91.2656 50.668C92.0391 51.7148 92.4258 53.3594 92.4258 55.6016ZM90.2109 55.6484C90.2109 53.8828 89.9727 52.6211 89.4961 51.8633C89.0195 51.1055 88.2617 50.7266 87.2227 50.7266C86.3867 50.7266 85.7305 50.9023 85.2539 51.2539C84.7852 51.6055 84.4258 52.1562 84.1758 52.9062C83.9336 53.6484 83.8125 54.6172 83.8125 55.8125C83.8125 57.4766 84.0781 58.7031 84.6094 59.4922C85.1406 60.2812 86.0039 60.6758 87.1992 60.6758C88.2461 60.6758 89.0078 60.293 89.4844 59.5273C89.9688 58.7539 90.2109 57.4609 90.2109 55.6484ZM104.578 58.4961C104.578 59.6914 104.125 60.6133 103.219 61.2617C102.32 61.9102 101.059 62.2344 99.4336 62.2344C97.8555 62.2344 96.6367 61.9766 95.7773 61.4609C94.9258 60.9375 94.3711 60.125 94.1133 59.0234L95.9766 58.6602C96.1562 59.3398 96.5273 59.8398 97.0898 60.1602C97.6523 60.4727 98.4336 60.6289 99.4336 60.6289C100.504 60.6289 101.285 60.4648 101.777 60.1367C102.277 59.8086 102.527 59.3164 102.527 58.6602C102.527 58.1602 102.355 57.7539 102.012 57.4414C101.668 57.1289 101.113 56.8711 100.348 56.668L98.8359 56.2695C97.625 55.957 96.7617 55.6523 96.2461 55.3555C95.7383 55.0508 95.3398 54.6836 95.0508 54.2539C94.7617 53.8242 94.6172 53.2969 94.6172 52.6719C94.6172 51.5156 95.0273 50.6367 95.8477 50.0352C96.6758 49.4258 97.8789 49.1211 99.457 49.1211C100.855 49.1211 101.965 49.3672 102.785 49.8594C103.613 50.3516 104.137 51.1406 104.355 52.2266L102.457 52.4609C102.34 51.8984 102.023 51.4688 101.508 51.1719C101 50.8672 100.316 50.7148 99.457 50.7148C98.5039 50.7148 97.8008 50.8594 97.3477 51.1484C96.8945 51.4375 96.668 51.875 96.668 52.4609C96.668 52.8203 96.7617 53.1172 96.9492 53.3516C97.1367 53.5859 97.4141 53.7852 97.7812 53.9492C98.1484 54.1133 98.9219 54.3398 100.102 54.6289C101.219 54.9102 102.023 55.1719 102.516 55.4141C103.008 55.6484 103.395 55.9102 103.676 56.1992C103.965 56.4883 104.188 56.8242 104.344 57.207C104.5 57.582 104.578 58.0117 104.578 58.4961ZM109.125 49.3203V57.3594C109.125 58.1953 109.207 58.8438 109.371 59.3047C109.535 59.7656 109.797 60.0977 110.156 60.3008C110.516 60.5039 111.043 60.6055 111.738 60.6055C112.754 60.6055 113.555 60.2578 114.141 59.5625C114.727 58.8672 115.02 57.9023 115.02 56.668V49.3203H117.129V59.293C117.129 60.7695 117.152 61.6719 117.199 62H115.207C115.199 61.9609 115.191 61.8555 115.184 61.6836C115.176 61.5117 115.164 61.3164 115.148 61.0977C115.141 60.8711 115.129 60.4492 115.113 59.832H115.078C114.594 60.707 114.031 61.3281 113.391 61.6953C112.758 62.0547 111.969 62.2344 111.023 62.2344C109.633 62.2344 108.613 61.8906 107.965 61.2031C107.324 60.5078 107.004 59.3633 107.004 57.7695V49.3203H109.125ZM127.805 62V53.9609C127.805 52.7344 127.637 51.8867 127.301 51.418C126.965 50.9492 126.359 50.7148 125.484 50.7148C124.586 50.7148 123.875 51.0586 123.352 51.7461C122.828 52.4336 122.566 53.4023 122.566 54.6523V62H120.469V52.0273C120.469 50.5508 120.445 49.6484 120.398 49.3203H122.391C122.398 49.3594 122.406 49.4648 122.414 49.6367C122.422 49.8086 122.43 50.0078 122.438 50.2344C122.453 50.4531 122.469 50.8711 122.484 51.4883H122.52C122.973 50.5898 123.492 49.9648 124.078 49.6133C124.664 49.2617 125.379 49.0859 126.223 49.0859C127.184 49.0859 127.941 49.2773 128.496 49.6602C129.059 50.043 129.449 50.6523 129.668 51.4883H129.703C130.141 50.6367 130.668 50.0234 131.285 49.6484C131.91 49.2734 132.664 49.0859 133.547 49.0859C134.828 49.0859 135.758 49.4336 136.336 50.1289C136.922 50.8242 137.215 51.9648 137.215 53.5508V62H135.129V53.9609C135.129 52.7344 134.961 51.8867 134.625 51.418C134.289 50.9492 133.684 50.7148 132.809 50.7148C131.887 50.7148 131.168 51.0586 130.652 51.7461C130.145 52.4258 129.891 53.3945 129.891 54.6523V62H127.805ZM155.098 59.9609C154.707 60.7734 154.188 61.3555 153.539 61.707C152.898 62.0586 152.102 62.2344 151.148 62.2344C149.547 62.2344 148.367 61.6953 147.609 60.6172C146.859 59.5391 146.484 57.9062 146.484 55.7188C146.484 51.2969 148.039 49.0859 151.148 49.0859C152.109 49.0859 152.91 49.2617 153.551 49.6133C154.191 49.9648 154.707 50.5234 155.098 51.2891H155.121L155.098 49.8711V44.6094H157.207V59.3867C157.207 60.707 157.23 61.5781 157.277 62H155.262C155.238 61.875 155.211 61.5859 155.18 61.1328C155.156 60.6797 155.145 60.2891 155.145 59.9609H155.098ZM148.699 55.6484C148.699 57.4219 148.934 58.6914 149.402 59.457C149.871 60.2227 150.633 60.6055 151.688 60.6055C152.883 60.6055 153.75 60.1914 154.289 59.3633C154.828 58.5352 155.098 57.25 155.098 55.5078C155.098 53.8281 154.828 52.5977 154.289 51.8164C153.75 51.0352 152.891 50.6445 151.711 50.6445C150.648 50.6445 149.879 51.0391 149.402 51.8281C148.934 52.6094 148.699 53.8828 148.699 55.6484ZM171.176 55.6484C171.176 57.8672 170.688 59.5195 169.711 60.6055C168.734 61.6914 167.316 62.2344 165.457 62.2344C163.605 62.2344 162.207 61.6719 161.262 60.5469C160.316 59.4141 159.844 57.7812 159.844 55.6484C159.844 51.2734 161.738 49.0859 165.527 49.0859C167.465 49.0859 168.891 49.6211 169.805 50.6914C170.719 51.7539 171.176 53.4062 171.176 55.6484ZM168.961 55.6484C168.961 53.8984 168.699 52.6289 168.176 51.8398C167.66 51.043 166.789 50.6445 165.562 50.6445C164.328 50.6445 163.434 51.0508 162.879 51.8633C162.332 52.668 162.059 53.9297 162.059 55.6484C162.059 57.3203 162.328 58.5781 162.867 59.4219C163.414 60.2578 164.27 60.6758 165.434 60.6758C166.699 60.6758 167.602 60.2695 168.141 59.457C168.688 58.6445 168.961 57.375 168.961 55.6484ZM173.812 62V44.6094H175.922V62H173.812ZM189.879 55.6484C189.879 57.8672 189.391 59.5195 188.414 60.6055C187.438 61.6914 186.02 62.2344 184.16 62.2344C182.309 62.2344 180.91 61.6719 179.965 60.5469C179.02 59.4141 178.547 57.7812 178.547 55.6484C178.547 51.2734 180.441 49.0859 184.23 49.0859C186.168 49.0859 187.594 49.6211 188.508 50.6914C189.422 51.7539 189.879 53.4062 189.879 55.6484ZM187.664 55.6484C187.664 53.8984 187.402 52.6289 186.879 51.8398C186.363 51.043 185.492 50.6445 184.266 50.6445C183.031 50.6445 182.137 51.0508 181.582 51.8633C181.035 52.668 180.762 53.9297 180.762 55.6484C180.762 57.3203 181.031 58.5781 181.57 59.4219C182.117 60.2578 182.973 60.6758 184.137 60.6758C185.402 60.6758 186.305 60.2695 186.844 59.457C187.391 58.6445 187.664 57.375 187.664 55.6484ZM192.562 62V52.2734C192.562 51.3828 192.539 50.3984 192.492 49.3203H194.484C194.547 50.7578 194.578 51.6211 194.578 51.9102H194.625C194.961 50.8242 195.348 50.082 195.785 49.6836C196.223 49.2852 196.84 49.0859 197.637 49.0859C197.918 49.0859 198.203 49.125 198.492 49.2031V51.1367C198.211 51.0586 197.836 51.0195 197.367 51.0195C196.492 51.0195 195.824 51.3984 195.363 52.1562C194.902 52.9062 194.672 53.9844 194.672 55.3906V62H192.562ZM216.703 58.4961C216.703 59.6914 216.25 60.6133 215.344 61.2617C214.445 61.9102 213.184 62.2344 211.559 62.2344C209.98 62.2344 208.762 61.9766 207.902 61.4609C207.051 60.9375 206.496 60.125 206.238 59.0234L208.102 58.6602C208.281 59.3398 208.652 59.8398 209.215 60.1602C209.777 60.4727 210.559 60.6289 211.559 60.6289C212.629 60.6289 213.41 60.4648 213.902 60.1367C214.402 59.8086 214.652 59.3164 214.652 58.6602C214.652 58.1602 214.48 57.7539 214.137 57.4414C213.793 57.1289 213.238 56.8711 212.473 56.668L210.961 56.2695C209.75 55.957 208.887 55.6523 208.371 55.3555C207.863 55.0508 207.465 54.6836 207.176 54.2539C206.887 53.8242 206.742 53.2969 206.742 52.6719C206.742 51.5156 207.152 50.6367 207.973 50.0352C208.801 49.4258 210.004 49.1211 211.582 49.1211C212.98 49.1211 214.09 49.3672 214.91 49.8594C215.738 50.3516 216.262 51.1406 216.48 52.2266L214.582 52.4609C214.465 51.8984 214.148 51.4688 213.633 51.1719C213.125 50.8672 212.441 50.7148 211.582 50.7148C210.629 50.7148 209.926 50.8594 209.473 51.1484C209.02 51.4375 208.793 51.875 208.793 52.4609C208.793 52.8203 208.887 53.1172 209.074 53.3516C209.262 53.5859 209.539 53.7852 209.906 53.9492C210.273 54.1133 211.047 54.3398 212.227 54.6289C213.344 54.9102 214.148 55.1719 214.641 55.4141C215.133 55.6484 215.52 55.9102 215.801 56.1992C216.09 56.4883 216.312 56.8242 216.469 57.207C216.625 57.582 216.703 58.0117 216.703 58.4961ZM219.176 46.625V44.6094H221.285V46.625H219.176ZM219.176 62V49.3203H221.285V62H219.176ZM229.406 61.9062C228.711 62.0938 228 62.1875 227.273 62.1875C225.586 62.1875 224.742 61.2305 224.742 59.3164V50.8555H223.277V49.3203H224.824L225.445 46.4844H226.852V49.3203H229.195V50.8555H226.852V58.8594C226.852 59.4688 226.949 59.8984 227.145 60.1484C227.348 60.3906 227.695 60.5117 228.188 60.5117C228.469 60.5117 228.875 60.457 229.406 60.3477V61.9062ZM241.125 62.2344C239.852 62.2344 238.895 61.8984 238.254 61.2266C237.613 60.5547 237.293 59.6328 237.293 58.4609C237.293 57.1484 237.723 56.1406 238.582 55.4375C239.449 54.7344 240.844 54.3594 242.766 54.3125L245.613 54.2656V53.5742C245.613 52.543 245.395 51.8047 244.957 51.3594C244.52 50.9141 243.832 50.6914 242.895 50.6914C241.949 50.6914 241.262 50.8516 240.832 51.1719C240.402 51.4922 240.145 52.0039 240.059 52.707L237.855 52.5078C238.215 50.2266 239.91 49.0859 242.941 49.0859C244.535 49.0859 245.734 49.4531 246.539 50.1875C247.344 50.9141 247.746 51.9688 247.746 53.3516V58.8125C247.746 59.4375 247.828 59.9102 247.992 60.2305C248.156 60.543 248.469 60.6992 248.93 60.6992C249.133 60.6992 249.363 60.6719 249.621 60.6172V61.9297C249.09 62.0547 248.547 62.1172 247.992 62.1172C247.211 62.1172 246.641 61.9141 246.281 61.5078C245.93 61.0938 245.73 60.4492 245.684 59.5742H245.613C245.074 60.543 244.445 61.2305 243.727 61.6367C243.016 62.0352 242.148 62.2344 241.125 62.2344ZM241.605 60.6523C242.379 60.6523 243.066 60.4766 243.668 60.125C244.27 59.7734 244.742 59.293 245.086 58.6836C245.438 58.0664 245.613 57.4336 245.613 56.7852V55.7422L243.305 55.7891C242.312 55.8047 241.559 55.9062 241.043 56.0938C240.535 56.2812 240.145 56.5703 239.871 56.9609C239.598 57.3516 239.461 57.8633 239.461 58.4961C239.461 59.1836 239.645 59.7148 240.012 60.0898C240.387 60.4648 240.918 60.6523 241.605 60.6523ZM258.633 62V53.9609C258.633 52.7344 258.465 51.8867 258.129 51.418C257.793 50.9492 257.188 50.7148 256.312 50.7148C255.414 50.7148 254.703 51.0586 254.18 51.7461C253.656 52.4336 253.395 53.4023 253.395 54.6523V62H251.297V52.0273C251.297 50.5508 251.273 49.6484 251.227 49.3203H253.219C253.227 49.3594 253.234 49.4648 253.242 49.6367C253.25 49.8086 253.258 50.0078 253.266 50.2344C253.281 50.4531 253.297 50.8711 253.312 51.4883H253.348C253.801 50.5898 254.32 49.9648 254.906 49.6133C255.492 49.2617 256.207 49.0859 257.051 49.0859C258.012 49.0859 258.77 49.2773 259.324 49.6602C259.887 50.043 260.277 50.6523 260.496 51.4883H260.531C260.969 50.6367 261.496 50.0234 262.113 49.6484C262.738 49.2734 263.492 49.0859 264.375 49.0859C265.656 49.0859 266.586 49.4336 267.164 50.1289C267.75 50.8242 268.043 51.9648 268.043 53.5508V62H265.957V53.9609C265.957 52.7344 265.789 51.8867 265.453 51.418C265.117 50.9492 264.512 50.7148 263.637 50.7148C262.715 50.7148 261.996 51.0586 261.48 51.7461C260.973 52.4258 260.719 53.3945 260.719 54.6523V62H258.633ZM272.859 56.1055C272.859 57.5586 273.16 58.6797 273.762 59.4688C274.363 60.2578 275.242 60.6523 276.398 60.6523C277.312 60.6523 278.043 60.4688 278.59 60.1016C279.145 59.7344 279.52 59.2695 279.715 58.707L281.566 59.2344C280.809 61.2344 279.086 62.2344 276.398 62.2344C274.523 62.2344 273.094 61.6758 272.109 60.5586C271.133 59.4414 270.645 57.7812 270.645 55.5781C270.645 53.4844 271.133 51.8789 272.109 50.7617C273.094 49.6445 274.496 49.0859 276.316 49.0859C280.043 49.0859 281.906 51.332 281.906 55.8242V56.1055H272.859ZM279.727 54.4883C279.609 53.1523 279.27 52.1797 278.707 51.5703C278.145 50.9531 277.336 50.6445 276.281 50.6445C275.258 50.6445 274.445 50.9883 273.844 51.6758C273.25 52.3555 272.93 53.293 272.883 54.4883H279.727ZM289.477 61.9062C288.781 62.0938 288.07 62.1875 287.344 62.1875C285.656 62.1875 284.812 61.2305 284.812 59.3164V50.8555H283.348V49.3203H284.895L285.516 46.4844H286.922V49.3203H289.266V50.8555H286.922V58.8594C286.922 59.4688 287.02 59.8984 287.215 60.1484C287.418 60.3906 287.766 60.5117 288.258 60.5117C288.539 60.5117 288.945 60.457 289.477 60.3477V61.9062ZM294.176 59.4336V61.4023C294.176 62.2305 294.102 62.9219 293.953 63.4766C293.805 64.0312 293.574 64.5625 293.262 65.0703H291.82C292.555 64.0078 292.922 62.9844 292.922 62H291.891V59.4336H294.176ZM3.22266 83.6016C3.22266 85.2891 3.48828 86.5391 4.01953 87.3516C4.55078 88.1641 5.35156 88.5703 6.42188 88.5703C7.17188 88.5703 7.79688 88.3672 8.29688 87.9609C8.80469 87.5547 9.11719 86.9297 9.23438 86.0859L11.3672 86.2266C11.2031 87.4453 10.6836 88.418 9.80859 89.1445C8.93359 89.8711 7.82422 90.2344 6.48047 90.2344C4.70703 90.2344 3.35156 89.6758 2.41406 88.5586C1.48438 87.4336 1.01953 85.7969 1.01953 83.6484C1.01953 81.5156 1.48828 79.8906 2.42578 78.7734C3.36328 77.6484 4.70703 77.0859 6.45703 77.0859C7.75391 77.0859 8.82812 77.4219 9.67969 78.0938C10.5391 78.7656 11.0781 79.6914 11.2969 80.8711L9.12891 81.0352C9.01953 80.332 8.74219 79.7734 8.29688 79.3594C7.85156 78.9453 7.21875 78.7383 6.39844 78.7383C5.28125 78.7383 4.47266 79.1094 3.97266 79.8516C3.47266 80.5938 3.22266 81.8438 3.22266 83.6016ZM24.3398 83.6484C24.3398 85.8672 23.8516 87.5195 22.875 88.6055C21.8984 89.6914 20.4805 90.2344 18.6211 90.2344C16.7695 90.2344 15.3711 89.6719 14.4258 88.5469C13.4805 87.4141 13.0078 85.7812 13.0078 83.6484C13.0078 79.2734 14.9023 77.0859 18.6914 77.0859C20.6289 77.0859 22.0547 77.6211 22.9688 78.6914C23.8828 79.7539 24.3398 81.4062 24.3398 83.6484ZM22.125 83.6484C22.125 81.8984 21.8633 80.6289 21.3398 79.8398C20.8242 79.043 19.9531 78.6445 18.7266 78.6445C17.4922 78.6445 16.5977 79.0508 16.043 79.8633C15.4961 80.668 15.2227 81.9297 15.2227 83.6484C15.2227 85.3203 15.4922 86.5781 16.0312 87.4219C16.5781 88.2578 17.4336 88.6758 18.5977 88.6758C19.8633 88.6758 20.7656 88.2695 21.3047 87.457C21.8516 86.6445 22.125 85.375 22.125 83.6484ZM35.0273 90V81.9609C35.0273 81.125 34.9453 80.4766 34.7812 80.0156C34.6172 79.5547 34.3555 79.2227 33.9961 79.0195C33.6367 78.8164 33.1094 78.7148 32.4141 78.7148C31.3984 78.7148 30.5977 79.0625 30.0117 79.7578C29.4258 80.4531 29.1328 81.418 29.1328 82.6523V90H27.0234V80.0273C27.0234 78.5508 27 77.6484 26.9531 77.3203H28.9453C28.9531 77.3594 28.9609 77.4648 28.9688 77.6367C28.9766 77.8086 28.9844 78.0078 28.9922 78.2344C29.0078 78.4531 29.0234 78.8711 29.0391 79.4883H29.0742C29.5586 78.6133 30.1172 77.9961 30.75 77.6367C31.3906 77.2695 32.1836 77.0859 33.1289 77.0859C34.5195 77.0859 35.5352 77.4336 36.1758 78.1289C36.8242 78.8164 37.1484 79.957 37.1484 81.5508V90H35.0273ZM49.8516 86.4961C49.8516 87.6914 49.3984 88.6133 48.4922 89.2617C47.5938 89.9102 46.332 90.2344 44.707 90.2344C43.1289 90.2344 41.9102 89.9766 41.0508 89.4609C40.1992 88.9375 39.6445 88.125 39.3867 87.0234L41.25 86.6602C41.4297 87.3398 41.8008 87.8398 42.3633 88.1602C42.9258 88.4727 43.707 88.6289 44.707 88.6289C45.7773 88.6289 46.5586 88.4648 47.0508 88.1367C47.5508 87.8086 47.8008 87.3164 47.8008 86.6602C47.8008 86.1602 47.6289 85.7539 47.2852 85.4414C46.9414 85.1289 46.3867 84.8711 45.6211 84.668L44.1094 84.2695C42.8984 83.957 42.0352 83.6523 41.5195 83.3555C41.0117 83.0508 40.6133 82.6836 40.3242 82.2539C40.0352 81.8242 39.8906 81.2969 39.8906 80.6719C39.8906 79.5156 40.3008 78.6367 41.1211 78.0352C41.9492 77.4258 43.1523 77.1211 44.7305 77.1211C46.1289 77.1211 47.2383 77.3672 48.0586 77.8594C48.8867 78.3516 49.4102 79.1406 49.6289 80.2266L47.7305 80.4609C47.6133 79.8984 47.2969 79.4688 46.7812 79.1719C46.2734 78.8672 45.5898 78.7148 44.7305 78.7148C43.7773 78.7148 43.0742 78.8594 42.6211 79.1484C42.168 79.4375 41.9414 79.875 41.9414 80.4609C41.9414 80.8203 42.0352 81.1172 42.2227 81.3516C42.4102 81.5859 42.6875 81.7852 43.0547 81.9492C43.4219 82.1133 44.1953 82.3398 45.375 82.6289C46.4922 82.9102 47.2969 83.1719 47.7891 83.4141C48.2812 83.6484 48.668 83.9102 48.9492 84.1992C49.2383 84.4883 49.4609 84.8242 49.6172 85.207C49.7734 85.582 49.8516 86.0117 49.8516 86.4961ZM53.9531 84.1055C53.9531 85.5586 54.2539 86.6797 54.8555 87.4688C55.457 88.2578 56.3359 88.6523 57.4922 88.6523C58.4062 88.6523 59.1367 88.4688 59.6836 88.1016C60.2383 87.7344 60.6133 87.2695 60.8086 86.707L62.6602 87.2344C61.9023 89.2344 60.1797 90.2344 57.4922 90.2344C55.6172 90.2344 54.1875 89.6758 53.2031 88.5586C52.2266 87.4414 51.7383 85.7812 51.7383 83.5781C51.7383 81.4844 52.2266 79.8789 53.2031 78.7617C54.1875 77.6445 55.5898 77.0859 57.4102 77.0859C61.1367 77.0859 63 79.332 63 83.8242V84.1055H53.9531ZM60.8203 82.4883C60.7031 81.1523 60.3633 80.1797 59.8008 79.5703C59.2383 78.9531 58.4297 78.6445 57.375 78.6445C56.3516 78.6445 55.5391 78.9883 54.9375 79.6758C54.3438 80.3555 54.0234 81.293 53.9766 82.4883H60.8203ZM67.3008 83.6016C67.3008 85.2891 67.5664 86.5391 68.0977 87.3516C68.6289 88.1641 69.4297 88.5703 70.5 88.5703C71.25 88.5703 71.875 88.3672 72.375 87.9609C72.8828 87.5547 73.1953 86.9297 73.3125 86.0859L75.4453 86.2266C75.2812 87.4453 74.7617 88.418 73.8867 89.1445C73.0117 89.8711 71.9023 90.2344 70.5586 90.2344C68.7852 90.2344 67.4297 89.6758 66.4922 88.5586C65.5625 87.4336 65.0977 85.7969 65.0977 83.6484C65.0977 81.5156 65.5664 79.8906 66.5039 78.7734C67.4414 77.6484 68.7852 77.0859 70.5352 77.0859C71.832 77.0859 72.9062 77.4219 73.7578 78.0938C74.6172 78.7656 75.1562 79.6914 75.375 80.8711L73.207 81.0352C73.0977 80.332 72.8203 79.7734 72.375 79.3594C71.9297 78.9453 71.2969 78.7383 70.4766 78.7383C69.3594 78.7383 68.5508 79.1094 68.0508 79.8516C67.5508 80.5938 67.3008 81.8438 67.3008 83.6016ZM82.5703 89.9062C81.875 90.0938 81.1641 90.1875 80.4375 90.1875C78.75 90.1875 77.9062 89.2305 77.9062 87.3164V78.8555H76.4414V77.3203H77.9883L78.6094 74.4844H80.0156V77.3203H82.3594V78.8555H80.0156V86.8594C80.0156 87.4688 80.1133 87.8984 80.3086 88.1484C80.5117 88.3906 80.8594 88.5117 81.3516 88.5117C81.6328 88.5117 82.0391 88.457 82.5703 88.3477V89.9062ZM85.9922 84.1055C85.9922 85.5586 86.293 86.6797 86.8945 87.4688C87.4961 88.2578 88.375 88.6523 89.5312 88.6523C90.4453 88.6523 91.1758 88.4688 91.7227 88.1016C92.2773 87.7344 92.6523 87.2695 92.8477 86.707L94.6992 87.2344C93.9414 89.2344 92.2188 90.2344 89.5312 90.2344C87.6562 90.2344 86.2266 89.6758 85.2422 88.5586C84.2656 87.4414 83.7773 85.7812 83.7773 83.5781C83.7773 81.4844 84.2656 79.8789 85.2422 78.7617C86.2266 77.6445 87.6289 77.0859 89.4492 77.0859C93.1758 77.0859 95.0391 79.332 95.0391 83.8242V84.1055H85.9922ZM92.8594 82.4883C92.7422 81.1523 92.4023 80.1797 91.8398 79.5703C91.2773 78.9531 90.4688 78.6445 89.4141 78.6445C88.3906 78.6445 87.5781 78.9883 86.9766 79.6758C86.3828 80.3555 86.0625 81.293 86.0156 82.4883H92.8594ZM102.609 89.9062C101.914 90.0938 101.203 90.1875 100.477 90.1875C98.7891 90.1875 97.9453 89.2305 97.9453 87.3164V78.8555H96.4805V77.3203H98.0273L98.6484 74.4844H100.055V77.3203H102.398V78.8555H100.055V86.8594C100.055 87.4688 100.152 87.8984 100.348 88.1484C100.551 88.3906 100.898 88.5117 101.391 88.5117C101.672 88.5117 102.078 88.457 102.609 88.3477V89.9062ZM106.477 77.3203V85.3594C106.477 86.1953 106.559 86.8438 106.723 87.3047C106.887 87.7656 107.148 88.0977 107.508 88.3008C107.867 88.5039 108.395 88.6055 109.09 88.6055C110.105 88.6055 110.906 88.2578 111.492 87.5625C112.078 86.8672 112.371 85.9023 112.371 84.668V77.3203H114.48V87.293C114.48 88.7695 114.504 89.6719 114.551 90H112.559C112.551 89.9609 112.543 89.8555 112.535 89.6836C112.527 89.5117 112.516 89.3164 112.5 89.0977C112.492 88.8711 112.48 88.4492 112.465 87.832H112.43C111.945 88.707 111.383 89.3281 110.742 89.6953C110.109 90.0547 109.32 90.2344 108.375 90.2344C106.984 90.2344 105.965 89.8906 105.316 89.2031C104.676 88.5078 104.355 87.3633 104.355 85.7695V77.3203H106.477ZM117.82 90V80.2734C117.82 79.3828 117.797 78.3984 117.75 77.3203H119.742C119.805 78.7578 119.836 79.6211 119.836 79.9102H119.883C120.219 78.8242 120.605 78.082 121.043 77.6836C121.48 77.2852 122.098 77.0859 122.895 77.0859C123.176 77.0859 123.461 77.125 123.75 77.2031V79.1367C123.469 79.0586 123.094 79.0195 122.625 79.0195C121.75 79.0195 121.082 79.3984 120.621 80.1562C120.16 80.9062 119.93 81.9844 119.93 83.3906V90H117.82ZM135.68 90.2344C134.406 90.2344 133.449 89.8984 132.809 89.2266C132.168 88.5547 131.848 87.6328 131.848 86.4609C131.848 85.1484 132.277 84.1406 133.137 83.4375C134.004 82.7344 135.398 82.3594 137.32 82.3125L140.168 82.2656V81.5742C140.168 80.543 139.949 79.8047 139.512 79.3594C139.074 78.9141 138.387 78.6914 137.449 78.6914C136.504 78.6914 135.816 78.8516 135.387 79.1719C134.957 79.4922 134.699 80.0039 134.613 80.707L132.41 80.5078C132.77 78.2266 134.465 77.0859 137.496 77.0859C139.09 77.0859 140.289 77.4531 141.094 78.1875C141.898 78.9141 142.301 79.9688 142.301 81.3516V86.8125C142.301 87.4375 142.383 87.9102 142.547 88.2305C142.711 88.543 143.023 88.6992 143.484 88.6992C143.688 88.6992 143.918 88.6719 144.176 88.6172V89.9297C143.645 90.0547 143.102 90.1172 142.547 90.1172C141.766 90.1172 141.195 89.9141 140.836 89.5078C140.484 89.0938 140.285 88.4492 140.238 87.5742H140.168C139.629 88.543 139 89.2305 138.281 89.6367C137.57 90.0352 136.703 90.2344 135.68 90.2344ZM136.16 88.6523C136.934 88.6523 137.621 88.4766 138.223 88.125C138.824 87.7734 139.297 87.293 139.641 86.6836C139.992 86.0664 140.168 85.4336 140.168 84.7852V83.7422L137.859 83.7891C136.867 83.8047 136.113 83.9062 135.598 84.0938C135.09 84.2812 134.699 84.5703 134.426 84.9609C134.152 85.3516 134.016 85.8633 134.016 86.4961C134.016 87.1836 134.199 87.7148 134.566 88.0898C134.941 88.4648 135.473 88.6523 136.16 88.6523ZM153.809 87.9609C153.418 88.7734 152.898 89.3555 152.25 89.707C151.609 90.0586 150.812 90.2344 149.859 90.2344C148.258 90.2344 147.078 89.6953 146.32 88.6172C145.57 87.5391 145.195 85.9062 145.195 83.7188C145.195 79.2969 146.75 77.0859 149.859 77.0859C150.82 77.0859 151.621 77.2617 152.262 77.6133C152.902 77.9648 153.418 78.5234 153.809 79.2891H153.832L153.809 77.8711V72.6094H155.918V87.3867C155.918 88.707 155.941 89.5781 155.988 90H153.973C153.949 89.875 153.922 89.5859 153.891 89.1328C153.867 88.6797 153.855 88.2891 153.855 87.9609H153.809ZM147.41 83.6484C147.41 85.4219 147.645 86.6914 148.113 87.457C148.582 88.2227 149.344 88.6055 150.398 88.6055C151.594 88.6055 152.461 88.1914 153 87.3633C153.539 86.5352 153.809 85.25 153.809 83.5078C153.809 81.8281 153.539 80.5977 153 79.8164C152.461 79.0352 151.602 78.6445 150.422 78.6445C149.359 78.6445 148.59 79.0391 148.113 79.8281C147.645 80.6094 147.41 81.8828 147.41 83.6484ZM159.152 74.625V72.6094H161.262V74.625H159.152ZM159.152 90V77.3203H161.262V90H159.152ZM175.23 83.6016C175.23 88.0234 173.676 90.2344 170.566 90.2344C168.613 90.2344 167.301 89.5 166.629 88.0312H166.57C166.602 88.0938 166.617 88.7578 166.617 90.0234V94.9805H164.508V79.9102C164.508 78.6055 164.484 77.7422 164.438 77.3203H166.477C166.484 77.3516 166.496 77.4648 166.512 77.6602C166.527 77.8477 166.543 78.1406 166.559 78.5391C166.582 78.9375 166.594 79.2109 166.594 79.3594H166.641C167.016 78.5781 167.512 78.0078 168.129 77.6484C168.746 77.2812 169.559 77.0977 170.566 77.0977C172.129 77.0977 173.297 77.6211 174.07 78.668C174.844 79.7148 175.23 81.3594 175.23 83.6016ZM173.016 83.6484C173.016 81.8828 172.777 80.6211 172.301 79.8633C171.824 79.1055 171.066 78.7266 170.027 78.7266C169.191 78.7266 168.535 78.9023 168.059 79.2539C167.59 79.6055 167.23 80.1562 166.98 80.9062C166.738 81.6484 166.617 82.6172 166.617 83.8125C166.617 85.4766 166.883 86.7031 167.414 87.4922C167.945 88.2812 168.809 88.6758 170.004 88.6758C171.051 88.6758 171.812 88.293 172.289 87.5273C172.773 86.7539 173.016 85.4609 173.016 83.6484ZM177.855 74.625V72.6094H179.965V74.625H177.855ZM177.855 90V77.3203H179.965V90H177.855ZM192.727 86.4961C192.727 87.6914 192.273 88.6133 191.367 89.2617C190.469 89.9102 189.207 90.2344 187.582 90.2344C186.004 90.2344 184.785 89.9766 183.926 89.4609C183.074 88.9375 182.52 88.125 182.262 87.0234L184.125 86.6602C184.305 87.3398 184.676 87.8398 185.238 88.1602C185.801 88.4727 186.582 88.6289 187.582 88.6289C188.652 88.6289 189.434 88.4648 189.926 88.1367C190.426 87.8086 190.676 87.3164 190.676 86.6602C190.676 86.1602 190.504 85.7539 190.16 85.4414C189.816 85.1289 189.262 84.8711 188.496 84.668L186.984 84.2695C185.773 83.957 184.91 83.6523 184.395 83.3555C183.887 83.0508 183.488 82.6836 183.199 82.2539C182.91 81.8242 182.766 81.2969 182.766 80.6719C182.766 79.5156 183.176 78.6367 183.996 78.0352C184.824 77.4258 186.027 77.1211 187.605 77.1211C189.004 77.1211 190.113 77.3672 190.934 77.8594C191.762 78.3516 192.285 79.1406 192.504 80.2266L190.605 80.4609C190.488 79.8984 190.172 79.4688 189.656 79.1719C189.148 78.8672 188.465 78.7148 187.605 78.7148C186.652 78.7148 185.949 78.8594 185.496 79.1484C185.043 79.4375 184.816 79.875 184.816 80.4609C184.816 80.8203 184.91 81.1172 185.098 81.3516C185.285 81.5859 185.562 81.7852 185.93 81.9492C186.297 82.1133 187.07 82.3398 188.25 82.6289C189.367 82.9102 190.172 83.1719 190.664 83.4141C191.156 83.6484 191.543 83.9102 191.824 84.1992C192.113 84.4883 192.336 84.8242 192.492 85.207C192.648 85.582 192.727 86.0117 192.727 86.4961ZM196.816 83.6016C196.816 85.2891 197.082 86.5391 197.613 87.3516C198.145 88.1641 198.945 88.5703 200.016 88.5703C200.766 88.5703 201.391 88.3672 201.891 87.9609C202.398 87.5547 202.711 86.9297 202.828 86.0859L204.961 86.2266C204.797 87.4453 204.277 88.418 203.402 89.1445C202.527 89.8711 201.418 90.2344 200.074 90.2344C198.301 90.2344 196.945 89.6758 196.008 88.5586C195.078 87.4336 194.613 85.7969 194.613 83.6484C194.613 81.5156 195.082 79.8906 196.02 78.7734C196.957 77.6484 198.301 77.0859 200.051 77.0859C201.348 77.0859 202.422 77.4219 203.273 78.0938C204.133 78.7656 204.672 79.6914 204.891 80.8711L202.723 81.0352C202.613 80.332 202.336 79.7734 201.891 79.3594C201.445 78.9453 200.812 78.7383 199.992 78.7383C198.875 78.7383 198.066 79.1094 197.566 79.8516C197.066 80.5938 196.816 81.8438 196.816 83.6016ZM207.199 74.625V72.6094H209.309V74.625H207.199ZM207.199 90V77.3203H209.309V90H207.199ZM220.605 90V81.9609C220.605 81.125 220.523 80.4766 220.359 80.0156C220.195 79.5547 219.934 79.2227 219.574 79.0195C219.215 78.8164 218.688 78.7148 217.992 78.7148C216.977 78.7148 216.176 79.0625 215.59 79.7578C215.004 80.4531 214.711 81.418 214.711 82.6523V90H212.602V80.0273C212.602 78.5508 212.578 77.6484 212.531 77.3203H214.523C214.531 77.3594 214.539 77.4648 214.547 77.6367C214.555 77.8086 214.562 78.0078 214.57 78.2344C214.586 78.4531 214.602 78.8711 214.617 79.4883H214.652C215.137 78.6133 215.695 77.9961 216.328 77.6367C216.969 77.2695 217.762 77.0859 218.707 77.0859C220.098 77.0859 221.113 77.4336 221.754 78.1289C222.402 78.8164 222.727 79.957 222.727 81.5508V90H220.605ZM230.719 94.9805C229.336 94.9805 228.234 94.707 227.414 94.1602C226.594 93.6211 226.066 92.8516 225.832 91.8516L227.953 91.5469C228.094 92.1328 228.402 92.582 228.879 92.8945C229.363 93.2148 229.996 93.375 230.777 93.375C232.879 93.375 233.93 92.1445 233.93 89.6836V87.6445H233.906C233.508 88.457 232.961 89.0703 232.266 89.4844C231.57 89.8906 230.758 90.0938 229.828 90.0938C228.273 90.0938 227.129 89.5781 226.395 88.5469C225.668 87.5156 225.305 85.8945 225.305 83.6836C225.305 81.4414 225.695 79.7891 226.477 78.7266C227.266 77.6562 228.461 77.1211 230.062 77.1211C230.961 77.1211 231.738 77.3281 232.395 77.7422C233.059 78.1484 233.57 78.7305 233.93 79.4883H233.953C233.953 79.2539 233.969 78.8477 234 78.2695C234.031 77.6914 234.062 77.375 234.094 77.3203H236.098C236.051 77.7422 236.027 78.6172 236.027 79.9453V89.6367C236.027 93.1992 234.258 94.9805 230.719 94.9805ZM233.93 83.6602C233.93 82.6289 233.789 81.7422 233.508 81C233.227 80.25 232.828 79.6797 232.312 79.2891C231.805 78.8906 231.227 78.6914 230.578 78.6914C229.5 78.6914 228.715 79.082 228.223 79.8633C227.73 80.6445 227.484 81.9102 227.484 83.6602C227.484 85.3945 227.715 86.6406 228.176 87.3984C228.637 88.1562 229.426 88.5352 230.543 88.5352C231.207 88.5352 231.797 88.3398 232.312 87.9492C232.828 87.5586 233.227 87 233.508 86.2734C233.789 85.5391 233.93 84.668 233.93 83.6602ZM247.57 84.1055C247.57 85.5586 247.871 86.6797 248.473 87.4688C249.074 88.2578 249.953 88.6523 251.109 88.6523C252.023 88.6523 252.754 88.4688 253.301 88.1016C253.855 87.7344 254.23 87.2695 254.426 86.707L256.277 87.2344C255.52 89.2344 253.797 90.2344 251.109 90.2344C249.234 90.2344 247.805 89.6758 246.82 88.5586C245.844 87.4414 245.355 85.7812 245.355 83.5781C245.355 81.4844 245.844 79.8789 246.82 78.7617C247.805 77.6445 249.207 77.0859 251.027 77.0859C254.754 77.0859 256.617 79.332 256.617 83.8242V84.1055H247.57ZM254.438 82.4883C254.32 81.1523 253.98 80.1797 253.418 79.5703C252.855 78.9531 252.047 78.6445 250.992 78.6445C249.969 78.6445 249.156 78.9883 248.555 79.6758C247.961 80.3555 247.641 81.293 247.594 82.4883H254.438ZM259.312 90V72.6094H261.422V90H259.312ZM264.645 74.625V72.6094H266.754V74.625H264.645ZM264.645 90V77.3203H266.754V90H264.645ZM274.875 89.9062C274.18 90.0938 273.469 90.1875 272.742 90.1875C271.055 90.1875 270.211 89.2305 270.211 87.3164V78.8555H268.746V77.3203H270.293L270.914 74.4844H272.32V77.3203H274.664V78.8555H272.32V86.8594C272.32 87.4688 272.418 87.8984 272.613 88.1484C272.816 88.3906 273.164 88.5117 273.656 88.5117C273.938 88.5117 274.344 88.457 274.875 88.3477V89.9062ZM279.574 87.4336V89.4023C279.574 90.2305 279.5 90.9219 279.352 91.4766C279.203 92.0312 278.973 92.5625 278.66 93.0703H277.219C277.953 92.0078 278.32 90.9844 278.32 90H277.289V87.4336H279.574ZM11.1328 114.496C11.1328 115.691 10.6797 116.613 9.77344 117.262C8.875 117.91 7.61328 118.234 5.98828 118.234C4.41016 118.234 3.19141 117.977 2.33203 117.461C1.48047 116.938 0.925781 116.125 0.667969 115.023L2.53125 114.66C2.71094 115.34 3.08203 115.84 3.64453 116.16C4.20703 116.473 4.98828 116.629 5.98828 116.629C7.05859 116.629 7.83984 116.465 8.33203 116.137C8.83203 115.809 9.08203 115.316 9.08203 114.66C9.08203 114.16 8.91016 113.754 8.56641 113.441C8.22266 113.129 7.66797 112.871 6.90234 112.668L5.39062 112.27C4.17969 111.957 3.31641 111.652 2.80078 111.355C2.29297 111.051 1.89453 110.684 1.60547 110.254C1.31641 109.824 1.17188 109.297 1.17188 108.672C1.17188 107.516 1.58203 106.637 2.40234 106.035C3.23047 105.426 4.43359 105.121 6.01172 105.121C7.41016 105.121 8.51953 105.367 9.33984 105.859C10.168 106.352 10.6914 107.141 10.9102 108.227L9.01172 108.461C8.89453 107.898 8.57812 107.469 8.0625 107.172C7.55469 106.867 6.87109 106.715 6.01172 106.715C5.05859 106.715 4.35547 106.859 3.90234 107.148C3.44922 107.438 3.22266 107.875 3.22266 108.461C3.22266 108.82 3.31641 109.117 3.50391 109.352C3.69141 109.586 3.96875 109.785 4.33594 109.949C4.70312 110.113 5.47656 110.34 6.65625 110.629C7.77344 110.91 8.57812 111.172 9.07031 111.414C9.5625 111.648 9.94922 111.91 10.2305 112.199C10.5195 112.488 10.7422 112.824 10.8984 113.207C11.0547 113.582 11.1328 114.012 11.1328 114.496ZM15.2344 112.105C15.2344 113.559 15.5352 114.68 16.1367 115.469C16.7383 116.258 17.6172 116.652 18.7734 116.652C19.6875 116.652 20.418 116.469 20.9648 116.102C21.5195 115.734 21.8945 115.27 22.0898 114.707L23.9414 115.234C23.1836 117.234 21.4609 118.234 18.7734 118.234C16.8984 118.234 15.4688 117.676 14.4844 116.559C13.5078 115.441 13.0195 113.781 13.0195 111.578C13.0195 109.484 13.5078 107.879 14.4844 106.762C15.4688 105.645 16.8711 105.086 18.6914 105.086C22.418 105.086 24.2812 107.332 24.2812 111.824V112.105H15.2344ZM22.1016 110.488C21.9844 109.152 21.6445 108.18 21.082 107.57C20.5195 106.953 19.7109 106.645 18.6562 106.645C17.6328 106.645 16.8203 106.988 16.2188 107.676C15.625 108.355 15.3047 109.293 15.2578 110.488H22.1016ZM34.9805 115.961C34.5898 116.773 34.0703 117.355 33.4219 117.707C32.7812 118.059 31.9844 118.234 31.0312 118.234C29.4297 118.234 28.25 117.695 27.4922 116.617C26.7422 115.539 26.3672 113.906 26.3672 111.719C26.3672 107.297 27.9219 105.086 31.0312 105.086C31.9922 105.086 32.793 105.262 33.4336 105.613C34.0742 105.965 34.5898 106.523 34.9805 107.289H35.0039L34.9805 105.871V100.609H37.0898V115.387C37.0898 116.707 37.1133 117.578 37.1602 118H35.1445C35.1211 117.875 35.0938 117.586 35.0625 117.133C35.0391 116.68 35.0273 116.289 35.0273 115.961H34.9805ZM28.582 111.648C28.582 113.422 28.8164 114.691 29.2852 115.457C29.7539 116.223 30.5156 116.605 31.5703 116.605C32.7656 116.605 33.6328 116.191 34.1719 115.363C34.7109 114.535 34.9805 113.25 34.9805 111.508C34.9805 109.828 34.7109 108.598 34.1719 107.816C33.6328 107.035 32.7734 106.645 31.5938 106.645C30.5312 106.645 29.7617 107.039 29.2852 107.828C28.8164 108.609 28.582 109.883 28.582 111.648ZM55.0195 115.961C54.6289 116.773 54.1094 117.355 53.4609 117.707C52.8203 118.059 52.0234 118.234 51.0703 118.234C49.4688 118.234 48.2891 117.695 47.5312 116.617C46.7812 115.539 46.4062 113.906 46.4062 111.719C46.4062 107.297 47.9609 105.086 51.0703 105.086C52.0312 105.086 52.832 105.262 53.4727 105.613C54.1133 105.965 54.6289 106.523 55.0195 107.289H55.043L55.0195 105.871V100.609H57.1289V115.387C57.1289 116.707 57.1523 117.578 57.1992 118H55.1836C55.1602 117.875 55.1328 117.586 55.1016 117.133C55.0781 116.68 55.0664 116.289 55.0664 115.961H55.0195ZM48.6211 111.648C48.6211 113.422 48.8555 114.691 49.3242 115.457C49.793 116.223 50.5547 116.605 51.6094 116.605C52.8047 116.605 53.6719 116.191 54.2109 115.363C54.75 114.535 55.0195 113.25 55.0195 111.508C55.0195 109.828 54.75 108.598 54.2109 107.816C53.6719 107.035 52.8125 106.645 51.6328 106.645C50.5703 106.645 49.8008 107.039 49.3242 107.828C48.8555 108.609 48.6211 109.883 48.6211 111.648ZM71.0977 111.648C71.0977 113.867 70.6094 115.52 69.6328 116.605C68.6562 117.691 67.2383 118.234 65.3789 118.234C63.5273 118.234 62.1289 117.672 61.1836 116.547C60.2383 115.414 59.7656 113.781 59.7656 111.648C59.7656 107.273 61.6602 105.086 65.4492 105.086C67.3867 105.086 68.8125 105.621 69.7266 106.691C70.6406 107.754 71.0977 109.406 71.0977 111.648ZM68.8828 111.648C68.8828 109.898 68.6211 108.629 68.0977 107.84C67.582 107.043 66.7109 106.645 65.4844 106.645C64.25 106.645 63.3555 107.051 62.8008 107.863C62.2539 108.668 61.9805 109.93 61.9805 111.648C61.9805 113.32 62.25 114.578 62.7891 115.422C63.3359 116.258 64.1914 116.676 65.3555 116.676C66.6211 116.676 67.5234 116.27 68.0625 115.457C68.6094 114.645 68.8828 113.375 68.8828 111.648ZM82.0312 112.105C82.0312 113.559 82.332 114.68 82.9336 115.469C83.5352 116.258 84.4141 116.652 85.5703 116.652C86.4844 116.652 87.2148 116.469 87.7617 116.102C88.3164 115.734 88.6914 115.27 88.8867 114.707L90.7383 115.234C89.9805 117.234 88.2578 118.234 85.5703 118.234C83.6953 118.234 82.2656 117.676 81.2812 116.559C80.3047 115.441 79.8164 113.781 79.8164 111.578C79.8164 109.484 80.3047 107.879 81.2812 106.762C82.2656 105.645 83.668 105.086 85.4883 105.086C89.2148 105.086 91.0781 107.332 91.0781 111.824V112.105H82.0312ZM88.8984 110.488C88.7812 109.152 88.4414 108.18 87.8789 107.57C87.3164 106.953 86.5078 106.645 85.4531 106.645C84.4297 106.645 83.6172 106.988 83.0156 107.676C82.4219 108.355 82.1016 109.293 82.0547 110.488H88.8984ZM93.7617 102.625V100.609H95.8711V102.625H93.7617ZM93.7617 118V105.32H95.8711V118H93.7617ZM101.18 105.32V113.359C101.18 114.195 101.262 114.844 101.426 115.305C101.59 115.766 101.852 116.098 102.211 116.301C102.57 116.504 103.098 116.605 103.793 116.605C104.809 116.605 105.609 116.258 106.195 115.562C106.781 114.867 107.074 113.902 107.074 112.668V105.32H109.184V115.293C109.184 116.77 109.207 117.672 109.254 118H107.262C107.254 117.961 107.246 117.855 107.238 117.684C107.23 117.512 107.219 117.316 107.203 117.098C107.195 116.871 107.184 116.449 107.168 115.832H107.133C106.648 116.707 106.086 117.328 105.445 117.695C104.812 118.055 104.023 118.234 103.078 118.234C101.688 118.234 100.668 117.891 100.02 117.203C99.3789 116.508 99.0586 115.363 99.0586 113.77V105.32H101.18ZM121.992 114.496C121.992 115.691 121.539 116.613 120.633 117.262C119.734 117.91 118.473 118.234 116.848 118.234C115.27 118.234 114.051 117.977 113.191 117.461C112.34 116.938 111.785 116.125 111.527 115.023L113.391 114.66C113.57 115.34 113.941 115.84 114.504 116.16C115.066 116.473 115.848 116.629 116.848 116.629C117.918 116.629 118.699 116.465 119.191 116.137C119.691 115.809 119.941 115.316 119.941 114.66C119.941 114.16 119.77 113.754 119.426 113.441C119.082 113.129 118.527 112.871 117.762 112.668L116.25 112.27C115.039 111.957 114.176 111.652 113.66 111.355C113.152 111.051 112.754 110.684 112.465 110.254C112.176 109.824 112.031 109.297 112.031 108.672C112.031 107.516 112.441 106.637 113.262 106.035C114.09 105.426 115.293 105.121 116.871 105.121C118.27 105.121 119.379 105.367 120.199 105.859C121.027 106.352 121.551 107.141 121.77 108.227L119.871 108.461C119.754 107.898 119.438 107.469 118.922 107.172C118.414 106.867 117.73 106.715 116.871 106.715C115.918 106.715 115.215 106.859 114.762 107.148C114.309 107.438 114.082 107.875 114.082 108.461C114.082 108.82 114.176 109.117 114.363 109.352C114.551 109.586 114.828 109.785 115.195 109.949C115.562 110.113 116.336 110.34 117.516 110.629C118.633 110.91 119.438 111.172 119.93 111.414C120.422 111.648 120.809 111.91 121.09 112.199C121.379 112.488 121.602 112.824 121.758 113.207C121.914 113.582 121.992 114.012 121.992 114.496ZM131.859 118V109.961C131.859 108.734 131.691 107.887 131.355 107.418C131.02 106.949 130.414 106.715 129.539 106.715C128.641 106.715 127.93 107.059 127.406 107.746C126.883 108.434 126.621 109.402 126.621 110.652V118H124.523V108.027C124.523 106.551 124.5 105.648 124.453 105.32H126.445C126.453 105.359 126.461 105.465 126.469 105.637C126.477 105.809 126.484 106.008 126.492 106.234C126.508 106.453 126.523 106.871 126.539 107.488H126.574C127.027 106.59 127.547 105.965 128.133 105.613C128.719 105.262 129.434 105.086 130.277 105.086C131.238 105.086 131.996 105.277 132.551 105.66C133.113 106.043 133.504 106.652 133.723 107.488H133.758C134.195 106.637 134.723 106.023 135.34 105.648C135.965 105.273 136.719 105.086 137.602 105.086C138.883 105.086 139.812 105.434 140.391 106.129C140.977 106.824 141.27 107.965 141.27 109.551V118H139.184V109.961C139.184 108.734 139.016 107.887 138.68 107.418C138.344 106.949 137.738 106.715 136.863 106.715C135.941 106.715 135.223 107.059 134.707 107.746C134.199 108.426 133.945 109.395 133.945 110.652V118H131.859ZM155.191 111.648C155.191 113.867 154.703 115.52 153.727 116.605C152.75 117.691 151.332 118.234 149.473 118.234C147.621 118.234 146.223 117.672 145.277 116.547C144.332 115.414 143.859 113.781 143.859 111.648C143.859 107.273 145.754 105.086 149.543 105.086C151.48 105.086 152.906 105.621 153.82 106.691C154.734 107.754 155.191 109.406 155.191 111.648ZM152.977 111.648C152.977 109.898 152.715 108.629 152.191 107.84C151.676 107.043 150.805 106.645 149.578 106.645C148.344 106.645 147.449 107.051 146.895 107.863C146.348 108.668 146.074 109.93 146.074 111.648C146.074 113.32 146.344 114.578 146.883 115.422C147.43 116.258 148.285 116.676 149.449 116.676C150.715 116.676 151.617 116.27 152.156 115.457C152.703 114.645 152.977 113.375 152.977 111.648ZM165.832 115.961C165.441 116.773 164.922 117.355 164.273 117.707C163.633 118.059 162.836 118.234 161.883 118.234C160.281 118.234 159.102 117.695 158.344 116.617C157.594 115.539 157.219 113.906 157.219 111.719C157.219 107.297 158.773 105.086 161.883 105.086C162.844 105.086 163.645 105.262 164.285 105.613C164.926 105.965 165.441 106.523 165.832 107.289H165.855L165.832 105.871V100.609H167.941V115.387C167.941 116.707 167.965 117.578 168.012 118H165.996C165.973 117.875 165.945 117.586 165.914 117.133C165.891 116.68 165.879 116.289 165.879 115.961H165.832ZM159.434 111.648C159.434 113.422 159.668 114.691 160.137 115.457C160.605 116.223 161.367 116.605 162.422 116.605C163.617 116.605 164.484 116.191 165.023 115.363C165.562 114.535 165.832 113.25 165.832 111.508C165.832 109.828 165.562 108.598 165.023 107.816C164.484 107.035 163.625 106.645 162.445 106.645C161.383 106.645 160.613 107.039 160.137 107.828C159.668 108.609 159.434 109.883 159.434 111.648ZM182.742 117.906C182.047 118.094 181.336 118.188 180.609 118.188C178.922 118.188 178.078 117.23 178.078 115.316V106.855H176.613V105.32H178.16L178.781 102.484H180.188V105.32H182.531V106.855H180.188V114.859C180.188 115.469 180.285 115.898 180.48 116.148C180.684 116.391 181.031 116.512 181.523 116.512C181.805 116.512 182.211 116.457 182.742 116.348V117.906ZM186.164 112.105C186.164 113.559 186.465 114.68 187.066 115.469C187.668 116.258 188.547 116.652 189.703 116.652C190.617 116.652 191.348 116.469 191.895 116.102C192.449 115.734 192.824 115.27 193.02 114.707L194.871 115.234C194.113 117.234 192.391 118.234 189.703 118.234C187.828 118.234 186.398 117.676 185.414 116.559C184.438 115.441 183.949 113.781 183.949 111.578C183.949 109.484 184.438 107.879 185.414 106.762C186.398 105.645 187.801 105.086 189.621 105.086C193.348 105.086 195.211 107.332 195.211 111.824V112.105H186.164ZM193.031 110.488C192.914 109.152 192.574 108.18 192.012 107.57C191.449 106.953 190.641 106.645 189.586 106.645C188.562 106.645 187.75 106.988 187.148 107.676C186.555 108.355 186.234 109.293 186.188 110.488H193.031ZM205.289 118V109.961C205.289 108.734 205.121 107.887 204.785 107.418C204.449 106.949 203.844 106.715 202.969 106.715C202.07 106.715 201.359 107.059 200.836 107.746C200.312 108.434 200.051 109.402 200.051 110.652V118H197.953V108.027C197.953 106.551 197.93 105.648 197.883 105.32H199.875C199.883 105.359 199.891 105.465 199.898 105.637C199.906 105.809 199.914 106.008 199.922 106.234C199.938 106.453 199.953 106.871 199.969 107.488H200.004C200.457 106.59 200.977 105.965 201.562 105.613C202.148 105.262 202.863 105.086 203.707 105.086C204.668 105.086 205.426 105.277 205.98 105.66C206.543 106.043 206.934 106.652 207.152 107.488H207.188C207.625 106.637 208.152 106.023 208.77 105.648C209.395 105.273 210.148 105.086 211.031 105.086C212.312 105.086 213.242 105.434 213.82 106.129C214.406 106.824 214.699 107.965 214.699 109.551V118H212.613V109.961C212.613 108.734 212.445 107.887 212.109 107.418C211.773 106.949 211.168 106.715 210.293 106.715C209.371 106.715 208.652 107.059 208.137 107.746C207.629 108.426 207.375 109.395 207.375 110.652V118H205.289ZM228.621 111.602C228.621 116.023 227.066 118.234 223.957 118.234C222.004 118.234 220.691 117.5 220.02 116.031H219.961C219.992 116.094 220.008 116.758 220.008 118.023V122.98H217.898V107.91C217.898 106.605 217.875 105.742 217.828 105.32H219.867C219.875 105.352 219.887 105.465 219.902 105.66C219.918 105.848 219.934 106.141 219.949 106.539C219.973 106.938 219.984 107.211 219.984 107.359H220.031C220.406 106.578 220.902 106.008 221.52 105.648C222.137 105.281 222.949 105.098 223.957 105.098C225.52 105.098 226.688 105.621 227.461 106.668C228.234 107.715 228.621 109.359 228.621 111.602ZM226.406 111.648C226.406 109.883 226.168 108.621 225.691 107.863C225.215 107.105 224.457 106.727 223.418 106.727C222.582 106.727 221.926 106.902 221.449 107.254C220.98 107.605 220.621 108.156 220.371 108.906C220.129 109.648 220.008 110.617 220.008 111.812C220.008 113.477 220.273 114.703 220.805 115.492C221.336 116.281 222.199 116.676 223.395 116.676C224.441 116.676 225.203 116.293 225.68 115.527C226.164 114.754 226.406 113.461 226.406 111.648ZM241.98 111.648C241.98 113.867 241.492 115.52 240.516 116.605C239.539 117.691 238.121 118.234 236.262 118.234C234.41 118.234 233.012 117.672 232.066 116.547C231.121 115.414 230.648 113.781 230.648 111.648C230.648 107.273 232.543 105.086 236.332 105.086C238.27 105.086 239.695 105.621 240.609 106.691C241.523 107.754 241.98 109.406 241.98 111.648ZM239.766 111.648C239.766 109.898 239.504 108.629 238.98 107.84C238.465 107.043 237.594 106.645 236.367 106.645C235.133 106.645 234.238 107.051 233.684 107.863C233.137 108.668 232.863 109.93 232.863 111.648C232.863 113.32 233.133 114.578 233.672 115.422C234.219 116.258 235.074 116.676 236.238 116.676C237.504 116.676 238.406 116.27 238.945 115.457C239.492 114.645 239.766 113.375 239.766 111.648ZM244.664 118V108.273C244.664 107.383 244.641 106.398 244.594 105.32H246.586C246.648 106.758 246.68 107.621 246.68 107.91H246.727C247.062 106.824 247.449 106.082 247.887 105.684C248.324 105.285 248.941 105.086 249.738 105.086C250.02 105.086 250.305 105.125 250.594 105.203V107.137C250.312 107.059 249.938 107.02 249.469 107.02C248.594 107.02 247.926 107.398 247.465 108.156C247.004 108.906 246.773 109.984 246.773 111.391V118H244.664ZM1.60547 130.625V128.609H3.71484V130.625H1.60547ZM1.60547 146V133.32H3.71484V146H1.60547ZM15.0117 146V137.961C15.0117 137.125 14.9297 136.477 14.7656 136.016C14.6016 135.555 14.3398 135.223 13.9805 135.02C13.6211 134.816 13.0938 134.715 12.3984 134.715C11.3828 134.715 10.582 135.062 9.99609 135.758C9.41016 136.453 9.11719 137.418 9.11719 138.652V146H7.00781V136.027C7.00781 134.551 6.98438 133.648 6.9375 133.32H8.92969C8.9375 133.359 8.94531 133.465 8.95312 133.637C8.96094 133.809 8.96875 134.008 8.97656 134.234C8.99219 134.453 9.00781 134.871 9.02344 135.488H9.05859C9.54297 134.613 10.1016 133.996 10.7344 133.637C11.375 133.27 12.168 133.086 13.1133 133.086C14.5039 133.086 15.5195 133.434 16.1602 134.129C16.8086 134.816 17.1328 135.957 17.1328 137.551V146H15.0117ZM21.9258 139.602C21.9258 141.289 22.1914 142.539 22.7227 143.352C23.2539 144.164 24.0547 144.57 25.125 144.57C25.875 144.57 26.5 144.367 27 143.961C27.5078 143.555 27.8203 142.93 27.9375 142.086L30.0703 142.227C29.9062 143.445 29.3867 144.418 28.5117 145.145C27.6367 145.871 26.5273 146.234 25.1836 146.234C23.4102 146.234 22.0547 145.676 21.1172 144.559C20.1875 143.434 19.7227 141.797 19.7227 139.648C19.7227 137.516 20.1914 135.891 21.1289 134.773C22.0664 133.648 23.4102 133.086 25.1602 133.086C26.457 133.086 27.5312 133.422 28.3828 134.094C29.2422 134.766 29.7812 135.691 30 136.871L27.832 137.035C27.7227 136.332 27.4453 135.773 27 135.359C26.5547 134.945 25.9219 134.738 25.1016 134.738C23.9844 134.738 23.1758 135.109 22.6758 135.852C22.1758 136.594 21.9258 137.844 21.9258 139.602ZM32.3086 130.625V128.609H34.418V130.625H32.3086ZM32.3086 146V133.32H34.418V146H32.3086ZM45.668 143.961C45.2773 144.773 44.7578 145.355 44.1094 145.707C43.4688 146.059 42.6719 146.234 41.7188 146.234C40.1172 146.234 38.9375 145.695 38.1797 144.617C37.4297 143.539 37.0547 141.906 37.0547 139.719C37.0547 135.297 38.6094 133.086 41.7188 133.086C42.6797 133.086 43.4805 133.262 44.1211 133.613C44.7617 133.965 45.2773 134.523 45.668 135.289H45.6914L45.668 133.871V128.609H47.7773V143.387C47.7773 144.707 47.8008 145.578 47.8477 146H45.832C45.8086 145.875 45.7812 145.586 45.75 145.133C45.7266 144.68 45.7148 144.289 45.7148 143.961H45.668ZM39.2695 139.648C39.2695 141.422 39.5039 142.691 39.9727 143.457C40.4414 144.223 41.2031 144.605 42.2578 144.605C43.4531 144.605 44.3203 144.191 44.8594 143.363C45.3984 142.535 45.668 141.25 45.668 139.508C45.668 137.828 45.3984 136.598 44.8594 135.816C44.3203 135.035 43.4609 134.645 42.2812 134.645C41.2188 134.645 40.4492 135.039 39.9727 135.828C39.5039 136.609 39.2695 137.883 39.2695 139.648ZM51.0117 130.625V128.609H53.1211V130.625H51.0117ZM51.0117 146V133.32H53.1211V146H51.0117ZM64.3711 143.961C63.9805 144.773 63.4609 145.355 62.8125 145.707C62.1719 146.059 61.375 146.234 60.4219 146.234C58.8203 146.234 57.6406 145.695 56.8828 144.617C56.1328 143.539 55.7578 141.906 55.7578 139.719C55.7578 135.297 57.3125 133.086 60.4219 133.086C61.3828 133.086 62.1836 133.262 62.8242 133.613C63.4648 133.965 63.9805 134.523 64.3711 135.289H64.3945L64.3711 133.871V128.609H66.4805V143.387C66.4805 144.707 66.5039 145.578 66.5508 146H64.5352C64.5117 145.875 64.4844 145.586 64.4531 145.133C64.4297 144.68 64.418 144.289 64.418 143.961H64.3711ZM57.9727 139.648C57.9727 141.422 58.207 142.691 58.6758 143.457C59.1445 144.223 59.9062 144.605 60.9609 144.605C62.1562 144.605 63.0234 144.191 63.5625 143.363C64.1016 142.535 64.3711 141.25 64.3711 139.508C64.3711 137.828 64.1016 136.598 63.5625 135.816C63.0234 135.035 62.1641 134.645 60.9844 134.645C59.9219 134.645 59.1523 135.039 58.6758 135.828C58.207 136.609 57.9727 137.883 57.9727 139.648ZM71.7891 133.32V141.359C71.7891 142.195 71.8711 142.844 72.0352 143.305C72.1992 143.766 72.4609 144.098 72.8203 144.301C73.1797 144.504 73.707 144.605 74.4023 144.605C75.418 144.605 76.2188 144.258 76.8047 143.562C77.3906 142.867 77.6836 141.902 77.6836 140.668V133.32H79.793V143.293C79.793 144.77 79.8164 145.672 79.8633 146H77.8711C77.8633 145.961 77.8555 145.855 77.8477 145.684C77.8398 145.512 77.8281 145.316 77.8125 145.098C77.8047 144.871 77.793 144.449 77.7773 143.832H77.7422C77.2578 144.707 76.6953 145.328 76.0547 145.695C75.4219 146.055 74.6328 146.234 73.6875 146.234C72.2969 146.234 71.2773 145.891 70.6289 145.203C69.9883 144.508 69.668 143.363 69.668 141.77V133.32H71.7891ZM91.1367 146V137.961C91.1367 137.125 91.0547 136.477 90.8906 136.016C90.7266 135.555 90.4648 135.223 90.1055 135.02C89.7461 134.816 89.2188 134.715 88.5234 134.715C87.5078 134.715 86.707 135.062 86.1211 135.758C85.5352 136.453 85.2422 137.418 85.2422 138.652V146H83.1328V136.027C83.1328 134.551 83.1094 133.648 83.0625 133.32H85.0547C85.0625 133.359 85.0703 133.465 85.0781 133.637C85.0859 133.809 85.0938 134.008 85.1016 134.234C85.1172 134.453 85.1328 134.871 85.1484 135.488H85.1836C85.668 134.613 86.2266 133.996 86.8594 133.637C87.5 133.27 88.293 133.086 89.2383 133.086C90.6289 133.086 91.6445 133.434 92.2852 134.129C92.9336 134.816 93.2578 135.957 93.2578 137.551V146H91.1367ZM101.32 145.906C100.625 146.094 99.9141 146.188 99.1875 146.188C97.5 146.188 96.6562 145.23 96.6562 143.316V134.855H95.1914V133.32H96.7383L97.3594 130.484H98.7656V133.32H101.109V134.855H98.7656V142.859C98.7656 143.469 98.8633 143.898 99.0586 144.148C99.2617 144.391 99.6094 144.512 100.102 144.512C100.383 144.512 100.789 144.457 101.32 144.348V145.906ZM111.867 133.32V141.359C111.867 142.195 111.949 142.844 112.113 143.305C112.277 143.766 112.539 144.098 112.898 144.301C113.258 144.504 113.785 144.605 114.48 144.605C115.496 144.605 116.297 144.258 116.883 143.562C117.469 142.867 117.762 141.902 117.762 140.668V133.32H119.871V143.293C119.871 144.77 119.895 145.672 119.941 146H117.949C117.941 145.961 117.934 145.855 117.926 145.684C117.918 145.512 117.906 145.316 117.891 145.098C117.883 144.871 117.871 144.449 117.855 143.832H117.82C117.336 144.707 116.773 145.328 116.133 145.695C115.5 146.055 114.711 146.234 113.766 146.234C112.375 146.234 111.355 145.891 110.707 145.203C110.066 144.508 109.746 143.363 109.746 141.77V133.32H111.867ZM128.039 145.906C127.344 146.094 126.633 146.188 125.906 146.188C124.219 146.188 123.375 145.23 123.375 143.316V134.855H121.91V133.32H123.457L124.078 130.484H125.484V133.32H127.828V134.855H125.484V142.859C125.484 143.469 125.582 143.898 125.777 144.148C125.98 144.391 126.328 144.512 126.82 144.512C127.102 144.512 127.508 144.457 128.039 144.348V145.906ZM136.523 146V128.609H138.633V146H136.523ZM145.102 146.234C143.828 146.234 142.871 145.898 142.23 145.227C141.59 144.555 141.27 143.633 141.27 142.461C141.27 141.148 141.699 140.141 142.559 139.438C143.426 138.734 144.82 138.359 146.742 138.312L149.59 138.266V137.574C149.59 136.543 149.371 135.805 148.934 135.359C148.496 134.914 147.809 134.691 146.871 134.691C145.926 134.691 145.238 134.852 144.809 135.172C144.379 135.492 144.121 136.004 144.035 136.707L141.832 136.508C142.191 134.227 143.887 133.086 146.918 133.086C148.512 133.086 149.711 133.453 150.516 134.188C151.32 134.914 151.723 135.969 151.723 137.352V142.812C151.723 143.438 151.805 143.91 151.969 144.23C152.133 144.543 152.445 144.699 152.906 144.699C153.109 144.699 153.34 144.672 153.598 144.617V145.93C153.066 146.055 152.523 146.117 151.969 146.117C151.188 146.117 150.617 145.914 150.258 145.508C149.906 145.094 149.707 144.449 149.66 143.574H149.59C149.051 144.543 148.422 145.23 147.703 145.637C146.992 146.035 146.125 146.234 145.102 146.234ZM145.582 144.652C146.355 144.652 147.043 144.477 147.645 144.125C148.246 143.773 148.719 143.293 149.062 142.684C149.414 142.066 149.59 141.434 149.59 140.785V139.742L147.281 139.789C146.289 139.805 145.535 139.906 145.02 140.094C144.512 140.281 144.121 140.57 143.848 140.961C143.574 141.352 143.438 141.863 143.438 142.496C143.438 143.184 143.621 143.715 143.988 144.09C144.363 144.465 144.895 144.652 145.582 144.652ZM165.949 139.602C165.949 144.023 164.395 146.234 161.285 146.234C160.324 146.234 159.523 146.062 158.883 145.719C158.25 145.367 157.734 144.805 157.336 144.031H157.312C157.312 144.273 157.297 144.645 157.266 145.145C157.234 145.637 157.211 145.922 157.195 146H155.156C155.203 145.578 155.227 144.707 155.227 143.387V128.609H157.336V133.566C157.336 134.074 157.32 134.672 157.289 135.359H157.336C157.727 134.547 158.242 133.965 158.883 133.613C159.531 133.262 160.332 133.086 161.285 133.086C162.887 133.086 164.062 133.625 164.812 134.703C165.57 135.781 165.949 137.414 165.949 139.602ZM163.734 139.672C163.734 137.898 163.5 136.629 163.031 135.863C162.562 135.098 161.801 134.715 160.746 134.715C159.559 134.715 158.691 135.121 158.145 135.934C157.605 136.746 157.336 138.035 157.336 139.801C157.336 141.465 157.602 142.695 158.133 143.492C158.664 144.281 159.527 144.676 160.723 144.676C161.785 144.676 162.551 144.285 163.02 143.504C163.496 142.715 163.734 141.438 163.734 139.672ZM179.309 139.648C179.309 141.867 178.82 143.52 177.844 144.605C176.867 145.691 175.449 146.234 173.59 146.234C171.738 146.234 170.34 145.672 169.395 144.547C168.449 143.414 167.977 141.781 167.977 139.648C167.977 135.273 169.871 133.086 173.66 133.086C175.598 133.086 177.023 133.621 177.938 134.691C178.852 135.754 179.309 137.406 179.309 139.648ZM177.094 139.648C177.094 137.898 176.832 136.629 176.309 135.84C175.793 135.043 174.922 134.645 173.695 134.645C172.461 134.645 171.566 135.051 171.012 135.863C170.465 136.668 170.191 137.93 170.191 139.648C170.191 141.32 170.461 142.578 171 143.422C171.547 144.258 172.402 144.676 173.566 144.676C174.832 144.676 175.734 144.27 176.273 143.457C176.82 142.645 177.094 141.375 177.094 139.648ZM181.992 146V136.273C181.992 135.383 181.969 134.398 181.922 133.32H183.914C183.977 134.758 184.008 135.621 184.008 135.91H184.055C184.391 134.824 184.777 134.082 185.215 133.684C185.652 133.285 186.27 133.086 187.066 133.086C187.348 133.086 187.633 133.125 187.922 133.203V135.137C187.641 135.059 187.266 135.02 186.797 135.02C185.922 135.02 185.254 135.398 184.793 136.156C184.332 136.906 184.102 137.984 184.102 139.391V146H181.992ZM191.555 140.105C191.555 141.559 191.855 142.68 192.457 143.469C193.059 144.258 193.938 144.652 195.094 144.652C196.008 144.652 196.738 144.469 197.285 144.102C197.84 143.734 198.215 143.27 198.41 142.707L200.262 143.234C199.504 145.234 197.781 146.234 195.094 146.234C193.219 146.234 191.789 145.676 190.805 144.559C189.828 143.441 189.34 141.781 189.34 139.578C189.34 137.484 189.828 135.879 190.805 134.762C191.789 133.645 193.191 133.086 195.012 133.086C198.738 133.086 200.602 135.332 200.602 139.824V140.105H191.555ZM198.422 138.488C198.305 137.152 197.965 136.18 197.402 135.57C196.84 134.953 196.031 134.645 194.977 134.645C193.953 134.645 193.141 134.988 192.539 135.676C191.945 136.355 191.625 137.293 191.578 138.488H198.422ZM211.594 140.105C211.594 141.559 211.895 142.68 212.496 143.469C213.098 144.258 213.977 144.652 215.133 144.652C216.047 144.652 216.777 144.469 217.324 144.102C217.879 143.734 218.254 143.27 218.449 142.707L220.301 143.234C219.543 145.234 217.82 146.234 215.133 146.234C213.258 146.234 211.828 145.676 210.844 144.559C209.867 143.441 209.379 141.781 209.379 139.578C209.379 137.484 209.867 135.879 210.844 134.762C211.828 133.645 213.23 133.086 215.051 133.086C218.777 133.086 220.641 135.332 220.641 139.824V140.105H211.594ZM218.461 138.488C218.344 137.152 218.004 136.18 217.441 135.57C216.879 134.953 216.07 134.645 215.016 134.645C213.992 134.645 213.18 134.988 212.578 135.676C211.984 136.355 211.664 137.293 211.617 138.488H218.461ZM228.211 145.906C227.516 146.094 226.805 146.188 226.078 146.188C224.391 146.188 223.547 145.23 223.547 143.316V134.855H222.082V133.32H223.629L224.25 130.484H225.656V133.32H228V134.855H225.656V142.859C225.656 143.469 225.754 143.898 225.949 144.148C226.152 144.391 226.5 144.512 226.992 144.512C227.273 144.512 227.68 144.457 228.211 144.348V145.906ZM244.699 143.961C244.309 144.773 243.789 145.355 243.141 145.707C242.5 146.059 241.703 146.234 240.75 146.234C239.148 146.234 237.969 145.695 237.211 144.617C236.461 143.539 236.086 141.906 236.086 139.719C236.086 135.297 237.641 133.086 240.75 133.086C241.711 133.086 242.512 133.262 243.152 133.613C243.793 133.965 244.309 134.523 244.699 135.289H244.723L244.699 133.871V128.609H246.809V143.387C246.809 144.707 246.832 145.578 246.879 146H244.863C244.84 145.875 244.812 145.586 244.781 145.133C244.758 144.68 244.746 144.289 244.746 143.961H244.699ZM238.301 139.648C238.301 141.422 238.535 142.691 239.004 143.457C239.473 144.223 240.234 144.605 241.289 144.605C242.484 144.605 243.352 144.191 243.891 143.363C244.43 142.535 244.699 141.25 244.699 139.508C244.699 137.828 244.43 136.598 243.891 135.816C243.352 135.035 242.492 134.645 241.312 134.645C240.25 134.645 239.48 135.039 239.004 135.828C238.535 136.609 238.301 137.883 238.301 139.648ZM260.777 139.648C260.777 141.867 260.289 143.52 259.312 144.605C258.336 145.691 256.918 146.234 255.059 146.234C253.207 146.234 251.809 145.672 250.863 144.547C249.918 143.414 249.445 141.781 249.445 139.648C249.445 135.273 251.34 133.086 255.129 133.086C257.066 133.086 258.492 133.621 259.406 134.691C260.32 135.754 260.777 137.406 260.777 139.648ZM258.562 139.648C258.562 137.898 258.301 136.629 257.777 135.84C257.262 135.043 256.391 134.645 255.164 134.645C253.93 134.645 253.035 135.051 252.48 135.863C251.934 136.668 251.66 137.93 251.66 139.648C251.66 141.32 251.93 142.578 252.469 143.422C253.016 144.258 253.871 144.676 255.035 144.676C256.301 144.676 257.203 144.27 257.742 143.457C258.289 142.645 258.562 141.375 258.562 139.648ZM263.414 146V128.609H265.523V146H263.414ZM279.48 139.648C279.48 141.867 278.992 143.52 278.016 144.605C277.039 145.691 275.621 146.234 273.762 146.234C271.91 146.234 270.512 145.672 269.566 144.547C268.621 143.414 268.148 141.781 268.148 139.648C268.148 135.273 270.043 133.086 273.832 133.086C275.77 133.086 277.195 133.621 278.109 134.691C279.023 135.754 279.48 137.406 279.48 139.648ZM277.266 139.648C277.266 137.898 277.004 136.629 276.48 135.84C275.965 135.043 275.094 134.645 273.867 134.645C272.633 134.645 271.738 135.051 271.184 135.863C270.637 136.668 270.363 137.93 270.363 139.648C270.363 141.32 270.633 142.578 271.172 143.422C271.719 144.258 272.574 144.676 273.738 144.676C275.004 144.676 275.906 144.27 276.445 143.457C276.992 142.645 277.266 141.375 277.266 139.648ZM282.164 146V136.273C282.164 135.383 282.141 134.398 282.094 133.32H284.086C284.148 134.758 284.18 135.621 284.18 135.91H284.227C284.562 134.824 284.949 134.082 285.387 133.684C285.824 133.285 286.441 133.086 287.238 133.086C287.52 133.086 287.805 133.125 288.094 133.203V135.137C287.812 135.059 287.438 135.02 286.969 135.02C286.094 135.02 285.426 135.398 284.965 136.156C284.504 136.906 284.273 137.984 284.273 139.391V146H282.164ZM291.727 140.105C291.727 141.559 292.027 142.68 292.629 143.469C293.23 144.258 294.109 144.652 295.266 144.652C296.18 144.652 296.91 144.469 297.457 144.102C298.012 143.734 298.387 143.27 298.582 142.707L300.434 143.234C299.676 145.234 297.953 146.234 295.266 146.234C293.391 146.234 291.961 145.676 290.977 144.559C290 143.441 289.512 141.781 289.512 139.578C289.512 137.484 290 135.879 290.977 134.762C291.961 133.645 293.363 133.086 295.184 133.086C298.91 133.086 300.773 135.332 300.773 139.824V140.105H291.727ZM298.594 138.488C298.477 137.152 298.137 136.18 297.574 135.57C297.012 134.953 296.203 134.645 295.148 134.645C294.125 134.645 293.312 134.988 292.711 135.676C292.117 136.355 291.797 137.293 291.75 138.488H298.594ZM9 174V165.961C9 164.734 8.83203 163.887 8.49609 163.418C8.16016 162.949 7.55469 162.715 6.67969 162.715C5.78125 162.715 5.07031 163.059 4.54688 163.746C4.02344 164.434 3.76172 165.402 3.76172 166.652V174H1.66406V164.027C1.66406 162.551 1.64062 161.648 1.59375 161.32H3.58594C3.59375 161.359 3.60156 161.465 3.60938 161.637C3.61719 161.809 3.625 162.008 3.63281 162.234C3.64844 162.453 3.66406 162.871 3.67969 163.488H3.71484C4.16797 162.59 4.6875 161.965 5.27344 161.613C5.85938 161.262 6.57422 161.086 7.41797 161.086C8.37891 161.086 9.13672 161.277 9.69141 161.66C10.2539 162.043 10.6445 162.652 10.8633 163.488H10.8984C11.3359 162.637 11.8633 162.023 12.4805 161.648C13.1055 161.273 13.8594 161.086 14.7422 161.086C16.0234 161.086 16.9531 161.434 17.5312 162.129C18.1172 162.824 18.4102 163.965 18.4102 165.551V174H16.3242V165.961C16.3242 164.734 16.1562 163.887 15.8203 163.418C15.4844 162.949 14.8789 162.715 14.0039 162.715C13.082 162.715 12.3633 163.059 11.8477 163.746C11.3398 164.426 11.0859 165.395 11.0859 166.652V174H9ZM24.8438 174.234C23.5703 174.234 22.6133 173.898 21.9727 173.227C21.332 172.555 21.0117 171.633 21.0117 170.461C21.0117 169.148 21.4414 168.141 22.3008 167.438C23.168 166.734 24.5625 166.359 26.4844 166.312L29.332 166.266V165.574C29.332 164.543 29.1133 163.805 28.6758 163.359C28.2383 162.914 27.5508 162.691 26.6133 162.691C25.668 162.691 24.9805 162.852 24.5508 163.172C24.1211 163.492 23.8633 164.004 23.7773 164.707L21.5742 164.508C21.9336 162.227 23.6289 161.086 26.6602 161.086C28.2539 161.086 29.4531 161.453 30.2578 162.188C31.0625 162.914 31.4648 163.969 31.4648 165.352V170.812C31.4648 171.438 31.5469 171.91 31.7109 172.23C31.875 172.543 32.1875 172.699 32.6484 172.699C32.8516 172.699 33.082 172.672 33.3398 172.617V173.93C32.8086 174.055 32.2656 174.117 31.7109 174.117C30.9297 174.117 30.3594 173.914 30 173.508C29.6484 173.094 29.4492 172.449 29.4023 171.574H29.332C28.793 172.543 28.1641 173.23 27.4453 173.637C26.7344 174.035 25.8672 174.234 24.8438 174.234ZM25.3242 172.652C26.0977 172.652 26.7852 172.477 27.3867 172.125C27.9883 171.773 28.4609 171.293 28.8047 170.684C29.1562 170.066 29.332 169.434 29.332 168.785V167.742L27.0234 167.789C26.0312 167.805 25.2773 167.906 24.7617 168.094C24.2539 168.281 23.8633 168.57 23.5898 168.961C23.3164 169.352 23.1797 169.863 23.1797 170.496C23.1797 171.184 23.3633 171.715 23.7305 172.09C24.1055 172.465 24.6367 172.652 25.3242 172.652ZM39.7734 178.98C38.3906 178.98 37.2891 178.707 36.4688 178.16C35.6484 177.621 35.1211 176.852 34.8867 175.852L37.0078 175.547C37.1484 176.133 37.457 176.582 37.9336 176.895C38.418 177.215 39.0508 177.375 39.832 177.375C41.9336 177.375 42.9844 176.145 42.9844 173.684V171.645H42.9609C42.5625 172.457 42.0156 173.07 41.3203 173.484C40.625 173.891 39.8125 174.094 38.8828 174.094C37.3281 174.094 36.1836 173.578 35.4492 172.547C34.7227 171.516 34.3594 169.895 34.3594 167.684C34.3594 165.441 34.75 163.789 35.5312 162.727C36.3203 161.656 37.5156 161.121 39.1172 161.121C40.0156 161.121 40.793 161.328 41.4492 161.742C42.1133 162.148 42.625 162.73 42.9844 163.488H43.0078C43.0078 163.254 43.0234 162.848 43.0547 162.27C43.0859 161.691 43.1172 161.375 43.1484 161.32H45.1523C45.1055 161.742 45.082 162.617 45.082 163.945V173.637C45.082 177.199 43.3125 178.98 39.7734 178.98ZM42.9844 167.66C42.9844 166.629 42.8438 165.742 42.5625 165C42.2812 164.25 41.8828 163.68 41.3672 163.289C40.8594 162.891 40.2812 162.691 39.6328 162.691C38.5547 162.691 37.7695 163.082 37.2773 163.863C36.7852 164.645 36.5391 165.91 36.5391 167.66C36.5391 169.395 36.7695 170.641 37.2305 171.398C37.6914 172.156 38.4805 172.535 39.5977 172.535C40.2617 172.535 40.8516 172.34 41.3672 171.949C41.8828 171.559 42.2812 171 42.5625 170.273C42.8438 169.539 42.9844 168.668 42.9844 167.66ZM56.3789 174V165.961C56.3789 165.125 56.2969 164.477 56.1328 164.016C55.9688 163.555 55.707 163.223 55.3477 163.02C54.9883 162.816 54.4609 162.715 53.7656 162.715C52.75 162.715 51.9492 163.062 51.3633 163.758C50.7773 164.453 50.4844 165.418 50.4844 166.652V174H48.375V164.027C48.375 162.551 48.3516 161.648 48.3047 161.32H50.2969C50.3047 161.359 50.3125 161.465 50.3203 161.637C50.3281 161.809 50.3359 162.008 50.3438 162.234C50.3594 162.453 50.375 162.871 50.3906 163.488H50.4258C50.9102 162.613 51.4688 161.996 52.1016 161.637C52.7422 161.27 53.5352 161.086 54.4805 161.086C55.8711 161.086 56.8867 161.434 57.5273 162.129C58.1758 162.816 58.5 163.957 58.5 165.551V174H56.3789ZM64.9219 174.234C63.6484 174.234 62.6914 173.898 62.0508 173.227C61.4102 172.555 61.0898 171.633 61.0898 170.461C61.0898 169.148 61.5195 168.141 62.3789 167.438C63.2461 166.734 64.6406 166.359 66.5625 166.312L69.4102 166.266V165.574C69.4102 164.543 69.1914 163.805 68.7539 163.359C68.3164 162.914 67.6289 162.691 66.6914 162.691C65.7461 162.691 65.0586 162.852 64.6289 163.172C64.1992 163.492 63.9414 164.004 63.8555 164.707L61.6523 164.508C62.0117 162.227 63.707 161.086 66.7383 161.086C68.332 161.086 69.5312 161.453 70.3359 162.188C71.1406 162.914 71.543 163.969 71.543 165.352V170.812C71.543 171.438 71.625 171.91 71.7891 172.23C71.9531 172.543 72.2656 172.699 72.7266 172.699C72.9297 172.699 73.1602 172.672 73.418 172.617V173.93C72.8867 174.055 72.3438 174.117 71.7891 174.117C71.0078 174.117 70.4375 173.914 70.0781 173.508C69.7266 173.094 69.5273 172.449 69.4805 171.574H69.4102C68.8711 172.543 68.2422 173.23 67.5234 173.637C66.8125 174.035 65.9453 174.234 64.9219 174.234ZM65.4023 172.652C66.1758 172.652 66.8633 172.477 67.4648 172.125C68.0664 171.773 68.5391 171.293 68.8828 170.684C69.2344 170.066 69.4102 169.434 69.4102 168.785V167.742L67.1016 167.789C66.1094 167.805 65.3555 167.906 64.8398 168.094C64.332 168.281 63.9414 168.57 63.668 168.961C63.3945 169.352 63.2578 169.863 63.2578 170.496C63.2578 171.184 63.4414 171.715 63.8086 172.09C64.1836 172.465 64.7148 172.652 65.4023 172.652ZM84.9609 174.234C83.6875 174.234 82.7305 173.898 82.0898 173.227C81.4492 172.555 81.1289 171.633 81.1289 170.461C81.1289 169.148 81.5586 168.141 82.418 167.438C83.2852 166.734 84.6797 166.359 86.6016 166.312L89.4492 166.266V165.574C89.4492 164.543 89.2305 163.805 88.793 163.359C88.3555 162.914 87.668 162.691 86.7305 162.691C85.7852 162.691 85.0977 162.852 84.668 163.172C84.2383 163.492 83.9805 164.004 83.8945 164.707L81.6914 164.508C82.0508 162.227 83.7461 161.086 86.7773 161.086C88.3711 161.086 89.5703 161.453 90.375 162.188C91.1797 162.914 91.582 163.969 91.582 165.352V170.812C91.582 171.438 91.6641 171.91 91.8281 172.23C91.9922 172.543 92.3047 172.699 92.7656 172.699C92.9688 172.699 93.1992 172.672 93.457 172.617V173.93C92.9258 174.055 92.3828 174.117 91.8281 174.117C91.0469 174.117 90.4766 173.914 90.1172 173.508C89.7656 173.094 89.5664 172.449 89.5195 171.574H89.4492C88.9102 172.543 88.2812 173.23 87.5625 173.637C86.8516 174.035 85.9844 174.234 84.9609 174.234ZM85.4414 172.652C86.2148 172.652 86.9023 172.477 87.5039 172.125C88.1055 171.773 88.5781 171.293 88.9219 170.684C89.2734 170.066 89.4492 169.434 89.4492 168.785V167.742L87.1406 167.789C86.1484 167.805 85.3945 167.906 84.8789 168.094C84.3711 168.281 83.9805 168.57 83.707 168.961C83.4336 169.352 83.2969 169.863 83.2969 170.496C83.2969 171.184 83.4805 171.715 83.8477 172.09C84.2227 172.465 84.7539 172.652 85.4414 172.652ZM95.0859 174V156.609H97.1953V174H95.0859ZM100.418 158.625V156.609H102.527V158.625H100.418ZM100.418 174V161.32H102.527V174H100.418ZM109.828 174.234C108.219 174.234 107.039 173.691 106.289 172.605C105.539 171.52 105.164 169.891 105.164 167.719C105.164 163.297 106.719 161.086 109.828 161.086C110.789 161.086 111.582 161.258 112.207 161.602C112.832 161.938 113.355 162.5 113.777 163.289H113.801C113.801 163.055 113.816 162.652 113.848 162.082C113.879 161.504 113.91 161.195 113.941 161.156H115.969C115.914 161.617 115.887 162.77 115.887 164.613V178.98H113.777V173.836L113.824 171.914H113.801C113.379 172.75 112.859 173.348 112.242 173.707C111.625 174.059 110.82 174.234 109.828 174.234ZM113.777 167.508C113.777 165.859 113.508 164.637 112.969 163.84C112.43 163.043 111.57 162.645 110.391 162.645C109.32 162.645 108.551 163.043 108.082 163.84C107.613 164.637 107.379 165.906 107.379 167.648C107.379 169.422 107.613 170.691 108.082 171.457C108.559 172.223 109.32 172.605 110.367 172.605C111.562 172.605 112.43 172.18 112.969 171.328C113.508 170.477 113.777 169.203 113.777 167.508ZM121.195 161.32V169.359C121.195 170.195 121.277 170.844 121.441 171.305C121.605 171.766 121.867 172.098 122.227 172.301C122.586 172.504 123.113 172.605 123.809 172.605C124.824 172.605 125.625 172.258 126.211 171.562C126.797 170.867 127.09 169.902 127.09 168.668V161.32H129.199V171.293C129.199 172.77 129.223 173.672 129.27 174H127.277C127.27 173.961 127.262 173.855 127.254 173.684C127.246 173.512 127.234 173.316 127.219 173.098C127.211 172.871 127.199 172.449 127.184 171.832H127.148C126.664 172.707 126.102 173.328 125.461 173.695C124.828 174.055 124.039 174.234 123.094 174.234C121.703 174.234 120.684 173.891 120.035 173.203C119.395 172.508 119.074 171.363 119.074 169.77V161.32H121.195ZM135.727 174.234C134.453 174.234 133.496 173.898 132.855 173.227C132.215 172.555 131.895 171.633 131.895 170.461C131.895 169.148 132.324 168.141 133.184 167.438C134.051 166.734 135.445 166.359 137.367 166.312L140.215 166.266V165.574C140.215 164.543 139.996 163.805 139.559 163.359C139.121 162.914 138.434 162.691 137.496 162.691C136.551 162.691 135.863 162.852 135.434 163.172C135.004 163.492 134.746 164.004 134.66 164.707L132.457 164.508C132.816 162.227 134.512 161.086 137.543 161.086C139.137 161.086 140.336 161.453 141.141 162.188C141.945 162.914 142.348 163.969 142.348 165.352V170.812C142.348 171.438 142.43 171.91 142.594 172.23C142.758 172.543 143.07 172.699 143.531 172.699C143.734 172.699 143.965 172.672 144.223 172.617V173.93C143.691 174.055 143.148 174.117 142.594 174.117C141.812 174.117 141.242 173.914 140.883 173.508C140.531 173.094 140.332 172.449 140.285 171.574H140.215C139.676 172.543 139.047 173.23 138.328 173.637C137.617 174.035 136.75 174.234 135.727 174.234ZM136.207 172.652C136.98 172.652 137.668 172.477 138.27 172.125C138.871 171.773 139.344 171.293 139.688 170.684C140.039 170.066 140.215 169.434 140.215 168.785V167.742L137.906 167.789C136.914 167.805 136.16 167.906 135.645 168.094C135.137 168.281 134.746 168.57 134.473 168.961C134.199 169.352 134.062 169.863 134.062 170.496C134.062 171.184 134.246 171.715 134.613 172.09C134.988 172.465 135.52 172.652 136.207 172.652Z" fill="black"/>
</g>
<defs>
<clipPath id="clip0">
<path d="M0 0H255C279.853 0 300 20.1472 300 45V195H0V0Z" fill="white"/>
</clipPath>
</defs>
</svg>
