<svg width="40" height="22" viewBox="0 0 40 22" fill="none" xmlns="http://www.w3.org/2000/svg">
<path d="M8.70801 21.293C7.01855 21.293 5.54395 20.9854 4.28418 20.3701C3.02441 19.7549 2.04785 18.8613 1.35449 17.6895C0.661133 16.5176 0.314453 15.1211 0.314453 13.5V0.360352H3.1123V13.2656C3.1123 15.1504 3.59082 16.5811 4.54785 17.5576C5.50488 18.5342 6.88672 19.0225 8.69336 19.0225C10.5488 19.0225 11.9893 18.5195 13.0146 17.5137C14.0498 16.498 14.5674 15.0186 14.5674 13.0752V0.360352H17.3506V13.2363C17.3506 14.9062 16.9941 16.3467 16.2812 17.5576C15.5781 18.7686 14.5771 19.6963 13.2783 20.3408C11.9893 20.9756 10.4658 21.293 8.70801 21.293ZM36.7744 21L34.416 14.9648H25.0117L22.6387 21H19.7383L28.1611 0.360352H31.3398L39.6309 21H36.7744ZM29.7139 2.46973L29.582 2.87988C29.3379 3.69043 28.9766 4.73047 28.498 6L25.8613 12.7822H33.5811L30.9297 5.9707C30.6562 5.29688 30.3828 4.53516 30.1094 3.68555L29.7139 2.46973Z" fill="white" fill-opacity="0.5"/>
</svg>
